<svg width="35" height="35" viewBox="0 0 35 35" fill="none" xmlns="http://www.w3.org/2000/svg">
<g clip-path="url(#clip0_596_3578)">
<path d="M17.5 32.8125C13.4389 32.8125 9.54408 31.1992 6.67243 28.3276C3.80078 25.4559 2.1875 21.5611 2.1875 17.5C2.1875 13.4389 3.80078 9.54408 6.67243 6.67243C9.54408 3.80078 13.4389 2.1875 17.5 2.1875C21.5611 2.1875 25.4559 3.80078 28.3276 6.67243C31.1992 9.54408 32.8125 13.4389 32.8125 17.5C32.8125 21.5611 31.1992 25.4559 28.3276 28.3276C25.4559 31.1992 21.5611 32.8125 17.5 32.8125ZM17.5 35C22.1413 35 26.5925 33.1563 29.8744 29.8744C33.1563 26.5925 35 22.1413 35 17.5C35 12.8587 33.1563 8.40752 29.8744 5.12563C26.5925 1.84374 22.1413 0 17.5 0C12.8587 0 8.40752 1.84374 5.12563 5.12563C1.84374 8.40752 0 12.8587 0 17.5C0 22.1413 1.84374 26.5925 5.12563 29.8744C8.40752 33.1563 12.8587 35 17.5 35Z" fill="#F1C107"/>
<path d="M19.5343 14.4112L14.5249 15.0391L14.3455 15.8703L15.3299 16.0519C15.973 16.205 16.0999 16.4369 15.9599 17.0778L14.3455 24.6641C13.9211 26.6262 14.5752 27.5494 16.113 27.5494C17.3052 27.5494 18.6899 26.9981 19.3177 26.2413L19.5102 25.3312C19.0727 25.7162 18.434 25.8694 18.0096 25.8694C17.408 25.8694 17.1893 25.4472 17.3446 24.7034L19.5343 14.4112ZM19.6874 9.84375C19.6874 10.4239 19.4569 10.9803 19.0467 11.3905C18.6365 11.8008 18.0801 12.0312 17.4999 12.0312C16.9197 12.0312 16.3633 11.8008 15.9531 11.3905C15.5429 10.9803 15.3124 10.4239 15.3124 9.84375C15.3124 9.26359 15.5429 8.70719 15.9531 8.29695C16.3633 7.88672 16.9197 7.65625 17.4999 7.65625C18.0801 7.65625 18.6365 7.88672 19.0467 8.29695C19.4569 8.70719 19.6874 9.26359 19.6874 9.84375Z" fill="#F1C107"/>
</g>
<defs>
<clipPath id="clip0_596_3578">
<rect width="35" height="35" fill="white"/>
</clipPath>
</defs>
</svg>
