<svg width="83" height="767" viewBox="0 0 83 767" fill="none" xmlns="http://www.w3.org/2000/svg">
<path d="M-361.736 713.915L-361.699 713.937L-361.663 713.961C-285.349 764.947 -206.382 774.918 -136.1 755.061C-65.7788 735.192 -3.99353 685.413 37.7712 616.625C121.18 479.249 77.4305 300.267 -59.9459 216.858C-93.5453 196.458 -131.511 167.744 -170.851 137.99C-172.125 137.027 -173.4 136.063 -174.676 135.098C-215.424 104.285 -257.564 72.5907 -297.986 47.8425C-338.452 23.0677 -376.944 5.41653 -410.403 2.44513C-427.09 0.963163 -442.461 3.13925 -456.201 9.8515C-469.859 16.524 -482.045 27.7471 -492.341 44.6081C-525.596 195.089 -527.277 341.63 -503.439 460.977C-479.566 580.501 -430.188 672.354 -361.736 713.915Z" stroke="url(#paint0_linear_174_2634)" stroke-width="4"/>
<defs>
<linearGradient id="paint0_linear_174_2634" x1="-349.002" y1="329.734" x2="-41.4809" y2="751.009" gradientUnits="userSpaceOnUse">
<stop offset="0.0001" stop-color="#FACD49"/>
<stop offset="0.136" stop-color="#FACD49"/>
<stop offset="1" stop-color="white"/>
</linearGradient>
</defs>
</svg>
