<svg width="16" height="16" viewBox="0 0 16 16" fill="none" xmlns="http://www.w3.org/2000/svg">
<path fill-rule="evenodd" clip-rule="evenodd" d="M2.16669 4.66671C2.16669 4.02236 2.68903 3.50004 3.33335 3.50004L11.3334 3.50004C11.9777 3.50004 12.5 4.02237 12.5 4.66671L12.5 8.66671C12.5 8.94285 12.2762 9.16671 12 9.16671C11.7239 9.16671 11.5 8.94285 11.5 8.66671L11.5 4.66671C11.5 4.57465 11.4254 4.50004 11.3334 4.50004L3.33335 4.50004C3.2413 4.50004 3.16669 4.57465 3.16669 4.66671L3.16669 12.6667C3.16669 12.7588 3.2413 12.8334 3.33335 12.8334L9.00002 12.8334C9.27616 12.8334 9.50002 13.0572 9.50002 13.3334C9.50002 13.6095 9.27616 13.8334 9.00002 13.8334L3.33335 13.8334C2.68903 13.8334 2.16669 13.3111 2.16669 12.6667L2.16669 4.66671Z" fill="#EDD500"/>
<path fill-rule="evenodd" clip-rule="evenodd" d="M5.33335 3.50004C5.6095 3.50004 5.83335 3.7239 5.83335 4.00004L5.83335 13.3334C5.83335 13.6095 5.6095 13.8334 5.33335 13.8334C5.05721 13.8334 4.83335 13.6095 4.83335 13.3334L4.83335 4.00004C4.83335 3.7239 5.05721 3.50004 5.33335 3.50004Z" fill="#EDD500"/>
<path fill-rule="evenodd" clip-rule="evenodd" d="M9.33335 3.50004C9.6095 3.50004 9.83335 3.7239 9.83335 4.00004L9.83335 9.66671C9.83335 9.94285 9.6095 10.1667 9.33335 10.1667C9.05721 10.1667 8.83335 9.94285 8.83335 9.66671L8.83335 4.00004C8.83335 3.7239 9.05721 3.50004 9.33335 3.50004Z" fill="#EDD500"/>
<path fill-rule="evenodd" clip-rule="evenodd" d="M4.83335 2.00004C4.83335 1.35571 5.35567 0.833374 6.00002 0.833374L8.66669 0.833374C9.31103 0.833374 9.83335 1.35571 9.83335 2.00004V4.00004C9.83335 4.27618 9.6095 4.50004 9.33335 4.50004C9.05721 4.50004 8.83335 4.27618 8.83335 4.00004V2.00004C8.83335 1.90799 8.75874 1.83337 8.66669 1.83337L6.00002 1.83337C5.90797 1.83337 5.83335 1.90799 5.83335 2.00004V4.00004C5.83335 4.27618 5.6095 4.50004 5.33335 4.50004C5.05721 4.50004 4.83335 4.27618 4.83335 4.00004V2.00004Z" fill="#EDD500"/>
<path fill-rule="evenodd" clip-rule="evenodd" d="M8.16669 11.6667C8.16669 9.7337 9.73368 8.16671 11.6667 8.16671C13.5997 8.16671 15.1667 9.7337 15.1667 11.6667C15.1667 13.5997 13.5997 15.1667 11.6667 15.1667C9.73368 15.1667 8.16669 13.5997 8.16669 11.6667ZM11.6667 9.16671C10.286 9.16671 9.16669 10.286 9.16669 11.6667C9.16669 13.0474 10.286 14.1667 11.6667 14.1667C13.0474 14.1667 14.1667 13.0474 14.1667 11.6667C14.1667 10.286 13.0474 9.16671 11.6667 9.16671Z" fill="#EDD500"/>
<path fill-rule="evenodd" clip-rule="evenodd" d="M11.3334 10.1667C11.6095 10.1667 11.8334 10.3906 11.8334 10.6667V11.5H12.6667C12.9428 11.5 13.1667 11.7239 13.1667 12C13.1667 12.2762 12.9428 12.5 12.6667 12.5H11.3334C11.0572 12.5 10.8334 12.2762 10.8334 12V10.6667C10.8334 10.3906 11.0572 10.1667 11.3334 10.1667Z" fill="#EDD500"/>
<path fill-rule="evenodd" clip-rule="evenodd" d="M4.33335 12.8334C4.6095 12.8334 4.83335 13.0572 4.83335 13.3334V14.6667C4.83335 14.9429 4.6095 15.1667 4.33335 15.1667C4.05721 15.1667 3.83335 14.9429 3.83335 14.6667L3.83335 13.3334C3.83335 13.0572 4.05721 12.8334 4.33335 12.8334Z" fill="#EDD500"/>
</svg>
