<svg width="28" height="30" viewBox="0 0 28 30" fill="none" xmlns="http://www.w3.org/2000/svg">
<g filter="url(#filter0_d_595_3511)">
<path fill-rule="evenodd" clip-rule="evenodd" d="M12.7044 3.51898C12.034 3.51898 11.4637 3.9848 11.3036 4.61265H16.6863C16.5263 3.9848 15.956 3.51898 15.2856 3.51898H12.7044ZM18.2071 4.61264H20.1881C22.2891 4.61264 24 6.34428 24 8.47085C24 8.47085 23.94 9.3711 23.92 10.6248C23.918 10.724 23.8699 10.8212 23.7909 10.88C23.3097 11.2354 22.8694 11.5291 22.8294 11.5493C21.1686 12.6632 19.2386 13.447 17.1826 13.8369C17.0485 13.8632 16.9165 13.7934 16.8484 13.6739C16.2721 12.6754 15.1956 12.0253 13.995 12.0253C12.8024 12.0253 11.7159 12.6683 11.1226 13.6678C11.0535 13.7853 10.9235 13.8531 10.7904 13.8278C8.75138 13.4369 6.82141 12.6541 5.17059 11.5594L4.21011 10.8911C4.13007 10.8405 4.08004 10.7493 4.08004 10.6481C4.05003 10.1316 4 8.47085 4 8.47085C4 6.34428 5.71086 4.61264 7.81191 4.61264H9.78289C9.97299 3.1443 11.2036 2 12.7044 2H15.2856C16.7864 2 18.017 3.1443 18.2071 4.61264ZM23.6598 12.8152L23.6198 12.8355C21.5988 14.1924 19.1676 15.0937 16.6163 15.4684C16.2561 15.519 15.8959 15.2861 15.7959 14.9216C15.5758 14.0912 14.8654 13.5443 14.015 13.5443H14.005H13.985C13.1346 13.5443 12.4242 14.0912 12.2041 14.9216C12.1041 15.2861 11.7439 15.519 11.3837 15.4684C8.83242 15.0937 6.4012 14.1924 4.38019 12.8355C4.37019 12.8254 4.27014 12.7646 4.1901 12.8152C4.10005 12.8659 4.10005 12.9874 4.10005 12.9874L4.17009 18.1519C4.17009 20.2785 5.87094 22 7.97199 22H20.018C22.1191 22 23.8199 20.2785 23.8199 18.1519L23.9 12.9874C23.9 12.9874 23.9 12.8659 23.8099 12.8152C23.7599 12.7849 23.6999 12.795 23.6598 12.8152ZM14.7454 17.0583C14.7454 17.4836 14.4152 17.8177 13.995 17.8177C13.5848 17.8177 13.2446 17.4836 13.2446 17.0583V15.7519C13.2446 15.3367 13.5848 14.9924 13.995 14.9924C14.4152 14.9924 14.7454 15.3367 14.7454 15.7519V17.0583Z" fill="#FFA500"/>
</g>
<defs>
<filter id="filter0_d_595_3511" x="-2" y="0" width="32" height="32" filterUnits="userSpaceOnUse" color-interpolation-filters="sRGB">
<feFlood flood-opacity="0" result="BackgroundImageFix"/>
<feColorMatrix in="SourceAlpha" type="matrix" values="0 0 0 0 0 0 0 0 0 0 0 0 0 0 0 0 0 0 127 0" result="hardAlpha"/>
<feOffset dy="4"/>
<feGaussianBlur stdDeviation="2"/>
<feComposite in2="hardAlpha" operator="out"/>
<feColorMatrix type="matrix" values="0 0 0 0 0 0 0 0 0 0 0 0 0 0 0 0 0 0 0.25 0"/>
<feBlend mode="normal" in2="BackgroundImageFix" result="effect1_dropShadow_595_3511"/>
<feBlend mode="normal" in="SourceGraphic" in2="effect1_dropShadow_595_3511" result="shape"/>
</filter>
</defs>
</svg>
