<svg width="35" height="35" viewBox="0 0 35 35" fill="none" xmlns="http://www.w3.org/2000/svg">
<path d="M32.2941 0.163805C32.4525 0.261793 32.5833 0.398624 32.674 0.561325C32.7647 0.724026 32.8124 0.907204 32.8125 1.09349V33.906C32.8125 34.1961 32.6973 34.4743 32.4921 34.6794C32.287 34.8845 32.0088 34.9997 31.7188 34.9997H25.1562C24.8662 34.9997 24.588 34.8845 24.3829 34.6794C24.1777 34.4743 24.0625 34.1961 24.0625 33.906V30.6247H21.875V33.906C21.875 34.1961 21.7598 34.4743 21.5546 34.6794C21.3495 34.8845 21.0713 34.9997 20.7812 34.9997H1.09375C0.803669 34.9997 0.52547 34.8845 0.320352 34.6794C0.115234 34.4743 0 34.1961 0 33.906V21.8747C0.000174227 21.6453 0.0725115 21.4217 0.206773 21.2356C0.341035 21.0495 0.530421 20.9104 0.748125 20.8379L13.125 16.7122V9.84349C13.125 9.64054 13.1815 9.44159 13.2881 9.2689C13.3947 9.09622 13.5473 8.9566 13.7288 8.86568L31.2288 0.11568C31.3957 0.0321306 31.5812 -0.00730932 31.7677 0.00111449C31.9541 0.0095383 32.1354 0.0655455 32.2941 0.163805ZM13.125 19.0179L2.1875 22.6622V32.8122H13.125V19.0179ZM15.3125 32.8122H19.6875V29.531C19.6875 29.2409 19.8027 28.9627 20.0079 28.7576C20.213 28.5525 20.4912 28.4372 20.7812 28.4372H25.1562C25.4463 28.4372 25.7245 28.5525 25.9296 28.7576C26.1348 28.9627 26.25 29.2409 26.25 29.531V32.8122H30.625V2.86318L15.3125 10.5194V32.8122Z" fill="#F1C107"/>
<path d="M4.375 24.0625H6.5625V26.25H4.375V24.0625ZM8.75 24.0625H10.9375V26.25H8.75V24.0625ZM4.375 28.4375H6.5625V30.625H4.375V28.4375ZM8.75 28.4375H10.9375V30.625H8.75V28.4375ZM17.5 19.6875H19.6875V21.875H17.5V19.6875ZM21.875 19.6875H24.0625V21.875H21.875V19.6875ZM17.5 24.0625H19.6875V26.25H17.5V24.0625ZM21.875 24.0625H24.0625V26.25H21.875V24.0625ZM26.25 19.6875H28.4375V21.875H26.25V19.6875ZM26.25 24.0625H28.4375V26.25H26.25V24.0625ZM17.5 15.3125H19.6875V17.5H17.5V15.3125ZM21.875 15.3125H24.0625V17.5H21.875V15.3125ZM26.25 15.3125H28.4375V17.5H26.25V15.3125ZM17.5 10.9375H19.6875V13.125H17.5V10.9375ZM21.875 10.9375H24.0625V13.125H21.875V10.9375ZM26.25 10.9375H28.4375V13.125H26.25V10.9375ZM26.25 6.5625H28.4375V8.75H26.25V6.5625Z" fill="#F1C107"/>
</svg>
