<svg width="35" height="27" viewBox="0 0 35 27" fill="none" xmlns="http://www.w3.org/2000/svg">
<path d="M32.8125 26.625C32.8125 26.625 35 26.625 35 24.4375C35 22.25 32.8125 15.6875 24.0625 15.6875C15.3125 15.6875 13.125 22.25 13.125 24.4375C13.125 26.625 15.3125 26.625 15.3125 26.625H32.8125ZM15.3606 24.4375L15.3125 24.4288C15.3147 23.8512 15.6778 22.1756 16.975 20.6663C18.1825 19.2509 20.3044 17.875 24.0625 17.875C27.8184 17.875 29.9403 19.2531 31.15 20.6663C32.4472 22.1756 32.8081 23.8534 32.8125 24.4288L32.795 24.4331L32.7644 24.4375H15.3606ZM24.0625 11.3125C25.2228 11.3125 26.3356 10.8516 27.1561 10.0311C27.9766 9.21062 28.4375 8.09782 28.4375 6.9375C28.4375 5.77718 27.9766 4.66438 27.1561 3.84391C26.3356 3.02344 25.2228 2.5625 24.0625 2.5625C22.9022 2.5625 21.7894 3.02344 20.9689 3.84391C20.1484 4.66438 19.6875 5.77718 19.6875 6.9375C19.6875 8.09782 20.1484 9.21062 20.9689 10.0311C21.7894 10.8516 22.9022 11.3125 24.0625 11.3125ZM30.625 6.9375C30.625 7.7993 30.4553 8.65266 30.1255 9.44886C29.7957 10.2451 29.3123 10.9685 28.7029 11.5779C28.0935 12.1873 27.3701 12.6707 26.5739 13.0005C25.7777 13.3303 24.9243 13.5 24.0625 13.5C23.2007 13.5 22.3473 13.3303 21.5511 13.0005C20.7549 12.6707 20.0315 12.1873 19.4221 11.5779C18.8127 10.9685 18.3293 10.2451 17.9995 9.44886C17.6697 8.65266 17.5 7.7993 17.5 6.9375C17.5 5.19702 18.1914 3.52782 19.4221 2.29711C20.6528 1.0664 22.322 0.375 24.0625 0.375C25.803 0.375 27.4722 1.0664 28.7029 2.29711C29.9336 3.52782 30.625 5.19702 30.625 6.9375ZM15.1725 16.3C14.297 16.0264 13.3952 15.8453 12.4819 15.7597C11.9686 15.7096 11.4532 15.6855 10.9375 15.6875C2.1875 15.6875 0 22.25 0 24.4375C0 25.8958 0.729167 26.625 2.1875 26.625H11.41C11.0859 25.942 10.9241 25.1934 10.9375 24.4375C10.9375 22.2281 11.7622 19.9706 13.3219 18.085C13.8534 17.4419 14.4725 16.8403 15.1725 16.3ZM10.7625 17.875C9.46865 19.8207 8.76935 22.101 8.75 24.4375H2.1875C2.1875 23.8687 2.54625 22.1844 3.85 20.6663C5.04219 19.275 7.11375 17.9188 10.7625 17.8772V17.875ZM3.28125 8.03125C3.28125 6.29077 3.97265 4.62157 5.20336 3.39086C6.43407 2.16015 8.10327 1.46875 9.84375 1.46875C11.5842 1.46875 13.2534 2.16015 14.4841 3.39086C15.7148 4.62157 16.4062 6.29077 16.4062 8.03125C16.4062 9.77173 15.7148 11.4409 14.4841 12.6716C13.2534 13.9023 11.5842 14.5938 9.84375 14.5938C8.10327 14.5938 6.43407 13.9023 5.20336 12.6716C3.97265 11.4409 3.28125 9.77173 3.28125 8.03125ZM9.84375 3.65625C8.68343 3.65625 7.57063 4.11719 6.75016 4.93766C5.92969 5.75813 5.46875 6.87093 5.46875 8.03125C5.46875 9.19157 5.92969 10.3044 6.75016 11.1248C7.57063 11.9453 8.68343 12.4062 9.84375 12.4062C11.0041 12.4062 12.1169 11.9453 12.9373 11.1248C13.7578 10.3044 14.2188 9.19157 14.2188 8.03125C14.2188 6.87093 13.7578 5.75813 12.9373 4.93766C12.1169 4.11719 11.0041 3.65625 9.84375 3.65625Z" fill="#F1C107"/>
</svg>
