<svg width="16" height="16" viewBox="0 0 16 16" fill="none" xmlns="http://www.w3.org/2000/svg">
<path d="M9.99998 15.1667H5.99998C2.37998 15.1667 0.833313 13.62 0.833313 10V6.00004C0.833313 2.38004 2.37998 0.833374 5.99998 0.833374H7.33331C7.60665 0.833374 7.83331 1.06004 7.83331 1.33337C7.83331 1.60671 7.60665 1.83337 7.33331 1.83337H5.99998C2.92665 1.83337 1.83331 2.92671 1.83331 6.00004V10C1.83331 13.0734 2.92665 14.1667 5.99998 14.1667H9.99998C13.0733 14.1667 14.1666 13.0734 14.1666 10V8.66671C14.1666 8.39337 14.3933 8.16671 14.6666 8.16671C14.94 8.16671 15.1666 8.39337 15.1666 8.66671V10C15.1666 13.62 13.62 15.1667 9.99998 15.1667Z" fill="white"/>
<path d="M5.66664 11.7934C5.25997 11.7934 4.88664 11.6467 4.61331 11.38C4.28664 11.0534 4.14664 10.58 4.21997 10.08L4.50664 8.07337C4.55997 7.68671 4.81331 7.18671 5.08664 6.91337L10.34 1.66004C11.6666 0.333372 13.0133 0.333372 14.34 1.66004C15.0666 2.38671 15.3933 3.12671 15.3266 3.86671C15.2666 4.46671 14.9466 5.05337 14.34 5.65337L9.08664 10.9067C8.8133 11.18 8.3133 11.4334 7.92664 11.4867L5.91997 11.7734C5.83331 11.7934 5.74664 11.7934 5.66664 11.7934ZM11.0466 2.36671L5.7933 7.62004C5.66664 7.74671 5.51997 8.04004 5.4933 8.21337L5.20664 10.22C5.17997 10.4134 5.21997 10.5734 5.31997 10.6734C5.41997 10.7734 5.57997 10.8134 5.7733 10.7867L7.77997 10.5C7.9533 10.4734 8.2533 10.3267 8.3733 10.2L13.6266 4.94671C14.06 4.51337 14.2866 4.12671 14.32 3.76671C14.36 3.33337 14.1333 2.87337 13.6266 2.36004C12.56 1.29337 11.8266 1.59337 11.0466 2.36671Z" fill="white"/>
<path d="M13.2334 6.55331C13.1867 6.55331 13.14 6.54664 13.1 6.53331C11.3467 6.03998 9.95335 4.64664 9.46002 2.89331C9.38668 2.62664 9.54002 2.35331 9.80668 2.27331C10.0734 2.19998 10.3467 2.35331 10.42 2.61998C10.82 4.03998 11.9467 5.16664 13.3667 5.56664C13.6333 5.63998 13.7867 5.91998 13.7134 6.18664C13.6534 6.41331 13.4534 6.55331 13.2334 6.55331Z" fill="white"/>
</svg>
