<svg width="1355" height="358" viewBox="0 0 1355 358" fill="none" xmlns="http://www.w3.org/2000/svg">
<path d="M0 30C0 13.4315 13.4315 0 30 0H1325C1341.57 0 1355 13.4315 1355 30V357H0V30Z" fill="#F6E08B"/>
<g opacity="0.3">
<path d="M184.487 0C184.923 1.80453 185.445 3.6061 186.054 5.40129C193.152 26.3456 211.954 46.5642 239.73 60.3437C295.216 87.8701 386.264 89.5173 489.159 19.7583C498.969 13.1074 508.817 6.51043 518.673 0H524.123C513.015 7.31067 501.907 14.7399 490.842 22.2414C387.237 92.4824 295.035 91.1296 238.396 63.0311C210.11 48.9982 190.63 28.2481 183.213 6.36427C182.496 4.25033 181.893 2.12715 181.405 0H184.487Z" fill="#FAF8ED"/>
<path d="M204.499 358C201.61 342.468 196.49 326.248 189.31 309.594C170.348 265.607 137.087 218.752 93 173.852V169.58C138.359 215.35 172.622 263.305 192.065 308.406C199.396 325.413 204.63 342.036 207.55 358H204.499Z" fill="#FAF8ED"/>
<path d="M596.165 358C586.35 280.972 546.388 221.854 491.394 183.67C427.753 139.481 343.927 123.297 263.304 139.969C243.12 144.143 229.96 149.55 222.419 156.002C218.674 159.206 216.345 162.641 215.197 166.294C214.048 169.948 214.044 173.931 215.128 178.286C217.311 187.061 223.862 197.167 233.91 208.605C243.929 220.01 257.285 232.588 272.866 246.312C285.161 257.141 298.833 268.673 313.31 280.884C340.922 304.174 371.462 329.936 400.966 358H396.609C367.967 330.922 338.409 305.988 311.537 283.318C297.012 271.065 283.271 259.473 270.884 248.563C255.277 234.818 241.805 222.138 231.656 210.585C221.536 199.064 214.58 188.51 212.216 179.011C211.026 174.229 210.989 169.672 212.335 165.394C213.681 161.114 216.375 157.224 220.468 153.723C228.602 146.763 242.38 141.232 262.696 137.031C344.073 120.203 428.747 136.519 493.106 181.205C548.875 219.928 589.349 279.931 599.189 358H596.165Z" fill="#FAF8ED"/>
<path d="M1065.46 358C1069.3 355.416 1073.36 352.717 1077.62 349.887C1081.64 347.216 1085.83 344.429 1090.18 341.512C1111.85 326.983 1137.57 309.17 1165.55 286.338C1193.41 263.607 1206.68 241.309 1209.99 221.572C1213.29 201.872 1206.71 184.506 1194.4 171.467C1169.68 145.298 1121.97 136.672 1085.36 162.23C1047.67 188.533 985.191 195.981 937.223 170.006C935.328 168.98 933.455 167.901 931.607 166.77C905.998 241.972 861.766 308.118 813.856 358H809.685C858.296 307.959 903.246 241.151 928.997 165.124C908.575 151.883 891.467 131.939 881.087 104.078C871.037 77.105 867.313 42.775 872.905 0H875.931C870.314 42.5866 874.026 76.5341 883.898 103.031C893.938 129.978 910.373 149.285 929.982 162.185C946.792 111.423 955.008 56.6194 950.047 0H953.062C958.04 57.2461 949.655 112.616 932.59 163.851C934.581 165.087 936.603 166.259 938.652 167.368C985.559 192.768 1046.83 185.466 1083.64 159.77C1121.53 133.328 1170.88 142.201 1196.58 169.407C1209.47 183.056 1216.42 201.346 1212.95 222.068C1209.48 242.753 1195.66 265.643 1167.45 288.662C1139.36 311.58 1113.55 329.454 1091.85 344.004C1087.46 346.949 1083.24 349.756 1079.2 352.438C1076.32 354.353 1073.54 356.206 1070.85 358H1065.46Z" fill="#FAF8ED"/>
<path d="M1078.41 0C1092.87 7.4466 1105.19 11.8844 1115.9 14.6004C1130.01 18.1798 1141.29 18.7775 1151.15 19.3001L1151.15 19.3001C1154.59 19.4825 1157.86 19.6558 1161.01 19.9434C1167.08 20.4969 1172.72 21.4819 1178.21 23.8436C1183.71 26.211 1188.98 29.9266 1194.39 35.8393C1205.14 47.6063 1216.51 68.1696 1231.39 104.43C1241.79 129.771 1252.58 150.661 1263 168.372V174.23C1251.72 155.487 1239.91 133.113 1228.61 105.569C1213.74 69.33 1202.54 49.2059 1192.17 37.8634C1187.02 32.2214 1182.08 28.7768 1177.02 26.5993C1171.95 24.416 1166.67 23.4714 1160.74 22.931C1157.74 22.6577 1154.57 22.4899 1151.19 22.3111C1141.28 21.7864 1129.59 21.1671 1115.16 17.5083C1102.98 14.418 1088.83 9.1656 1072.01 0H1078.41Z" fill="#FAF8ED"/>
</g>
</svg>
