<svg width="351" height="226" viewBox="0 0 351 226" fill="none" xmlns="http://www.w3.org/2000/svg">
<g filter="url(#filter0_d_210_3456)">
<path fill-rule="evenodd" clip-rule="evenodd" d="M277.647 8.25C277.529 8.25 277.413 8.27783 277.308 8.33121L266.176 13.9806C266.176 13.9806 266.176 13.9806 266.176 13.9806C265.649 14.2484 265.037 14.2976 264.474 14.1176M264.474 14.1176L262.834 13.5941C262.834 13.5941 262.834 13.5941 262.834 13.5941C262.672 13.5422 262.497 13.5472 262.338 13.6082L261.736 13.8388L264.019 15.7851C264.248 15.9803 264.572 16.0197 264.841 15.8851L268.953 13.8292C269.323 13.6439 269.774 13.7941 269.959 14.1646C270.144 14.5351 269.994 14.9856 269.624 15.1708L265.512 17.2267C265.512 17.2267 265.512 17.2267 265.512 17.2267C264.704 17.6306 263.733 17.5124 263.046 16.9266L259.802 14.1612C259.6 13.9895 259.504 13.7244 259.549 13.4635C259.594 13.2027 259.773 12.9848 260.02 12.8901L261.801 12.2075C262.278 12.0246 262.804 12.0097 263.29 12.1651L264.93 12.6887C265.118 12.7487 265.322 12.7323 265.497 12.6431L276.629 6.99361C276.944 6.83349 277.293 6.75 277.647 6.75L280.288 6.75C280.548 6.75 280.789 6.88459 280.926 7.1057C281.063 7.32681 281.075 7.60292 280.959 7.83541L280.183 9.38821C279.965 9.82366 279.612 10.1767 279.176 10.3944L274.624 12.6708C274.253 12.8561 273.803 12.7059 273.617 12.3354C273.432 11.9649 273.582 11.5144 273.953 11.3292L278.505 9.05278C278.651 8.9802 278.768 8.86254 278.841 8.71739L279.075 8.25H277.647" fill="#EDD500"/>
<path fill-rule="evenodd" clip-rule="evenodd" d="M274.639 11.3372C275.005 11.531 275.145 11.9849 274.951 12.3509L270.451 20.8509C270.319 21.0992 270.06 21.2532 269.779 21.25C269.498 21.2467 269.243 21.0867 269.117 20.8354L266.617 15.8354C266.528 15.6575 266.514 15.4516 266.577 15.2628C266.639 15.0741 266.775 14.9181 266.953 14.8292L268.953 13.8292C269.323 13.6439 269.774 13.7941 269.959 14.1646C270.144 14.5351 269.994 14.9856 269.624 15.1708L268.294 15.8355L269.807 18.8611L273.625 11.6491C273.819 11.283 274.273 11.1434 274.639 11.3372Z" fill="#EDD500"/>
<path fill-rule="evenodd" clip-rule="evenodd" d="M263.693 7.5435C263.875 7.30641 264.18 7.19989 264.47 7.27237L272.47 9.27237C272.872 9.37283 273.116 9.78003 273.016 10.1819C272.915 10.5837 272.508 10.828 272.106 10.7276L265.783 9.14683L267.444 12.1357C267.645 12.4978 267.514 12.9544 267.152 13.1556C266.79 13.3568 266.334 13.2263 266.132 12.8642L263.632 8.3642C263.487 8.103 263.511 7.78058 263.693 7.5435Z" fill="#EDD500"/>
</g>
<defs>
<filter id="filter0_d_210_3456" x="0" y="0" width="355" height="226" filterUnits="userSpaceOnUse" color-interpolation-filters="sRGB">
<feFlood flood-opacity="0" result="BackgroundImageFix"/>
<feColorMatrix in="SourceAlpha" type="matrix" values="0 0 0 0 0 0 0 0 0 0 0 0 0 0 0 0 0 0 127 0" result="hardAlpha"/>
<feOffset dy="4"/>
<feGaussianBlur stdDeviation="2"/>
<feComposite in2="hardAlpha" operator="out"/>
<feColorMatrix type="matrix" values="0 0 0 0 0 0 0 0 0 0 0 0 0 0 0 0 0 0 0.25 0"/>
<feBlend mode="normal" in2="BackgroundImageFix" result="effect1_dropShadow_210_3456"/>
<feBlend mode="normal" in="SourceGraphic" in2="effect1_dropShadow_210_3456" result="shape"/>
</filter>
</defs>
</svg>
