<svg width="351" height="226" viewBox="0 0 351 226" fill="none" xmlns="http://www.w3.org/2000/svg">
<g filter="url(#filter0_d_783_3300)">
<path fill-rule="evenodd" clip-rule="evenodd" d="M277.647 8.25C277.529 8.25 277.413 8.27783 277.308 8.33121L266.176 13.9806C266.176 13.9806 266.176 13.9806 266.176 13.9806C265.649 14.2484 265.037 14.2976 264.474 14.1176M264.474 14.1176L262.834 13.5941C262.834 13.5941 262.834 13.5941 262.834 13.5941C262.672 13.5422 262.497 13.5472 262.338 13.6082L261.736 13.8388L264.019 15.7851C264.248 15.9803 264.572 16.0197 264.841 15.8851L268.953 13.8292C269.323 13.6439 269.774 13.7941 269.959 14.1646C270.144 14.5351 269.994 14.9856 269.624 15.1708L265.512 17.2267C265.512 17.2267 265.512 17.2267 265.512 17.2267C264.704 17.6306 263.733 17.5124 263.046 16.9266L259.802 14.1612C259.6 13.9895 259.504 13.7244 259.549 13.4635C259.594 13.2027 259.773 12.9848 260.02 12.8901L261.801 12.2075C262.278 12.0246 262.804 12.0097 263.29 12.1651L264.93 12.6887C265.118 12.7487 265.322 12.7323 265.497 12.6431L276.629 6.99361C276.944 6.83349 277.293 6.75 277.647 6.75L280.288 6.75C280.548 6.75 280.789 6.88459 280.926 7.1057C281.063 7.32681 281.075 7.60292 280.959 7.83541L280.183 9.38821C279.965 9.82366 279.612 10.1767 279.176 10.3944L274.624 12.6708C274.253 12.8561 273.803 12.7059 273.617 12.3354C273.432 11.9649 273.582 11.5144 273.953 11.3292L278.505 9.05278C278.651 8.9802 278.768 8.86254 278.841 8.71739L279.075 8.25H277.647" fill="#EDD500"/>
<path fill-rule="evenodd" clip-rule="evenodd" d="M274.639 11.3372C275.005 11.531 275.145 11.9849 274.951 12.3509L270.451 20.8509C270.319 21.0992 270.06 21.2532 269.779 21.25C269.498 21.2467 269.243 21.0867 269.117 20.8354L266.617 15.8354C266.528 15.6575 266.514 15.4516 266.577 15.2628C266.639 15.0741 266.775 14.9181 266.953 14.8292L268.953 13.8292C269.323 13.6439 269.774 13.7941 269.959 14.1646C270.144 14.5351 269.994 14.9856 269.624 15.1708L268.294 15.8355L269.807 18.8611L273.625 11.6491C273.819 11.283 274.273 11.1434 274.639 11.3372Z" fill="#EDD500"/>
<path fill-rule="evenodd" clip-rule="evenodd" d="M263.693 7.5435C263.875 7.30641 264.18 7.19989 264.47 7.27237L272.47 9.27237C272.872 9.37283 273.116 9.78003 273.016 10.1819C272.915 10.5837 272.508 10.828 272.106 10.7276L265.783 9.14683L267.444 12.1357C267.645 12.4978 267.514 12.9544 267.152 13.1556C266.79 13.3568 266.334 13.2263 266.132 12.8642L263.632 8.3642C263.487 8.103 263.511 7.78058 263.693 7.5435Z" fill="#EDD500"/>
<path d="M193.506 56.284C193.599 56.816 193.814 57.2267 194.15 57.516C194.495 57.8053 194.957 57.95 195.536 57.95C196.311 57.95 196.88 57.6467 197.244 57.04C197.617 56.4333 197.795 55.4113 197.776 53.974C197.58 54.394 197.253 54.7253 196.796 54.968C196.339 55.2013 195.83 55.318 195.27 55.318C194.645 55.318 194.085 55.192 193.59 54.94C193.105 54.6787 192.722 54.3007 192.442 53.806C192.162 53.3113 192.022 52.714 192.022 52.014C192.022 51.0153 192.311 50.2127 192.89 49.606C193.469 48.99 194.29 48.682 195.354 48.682C196.661 48.682 197.575 49.1067 198.098 49.956C198.63 50.8053 198.896 52.07 198.896 53.75C198.896 54.926 198.789 55.8967 198.574 56.662C198.369 57.4273 198.014 58.0107 197.51 58.412C197.015 58.8133 196.334 59.014 195.466 59.014C194.514 59.014 193.772 58.7573 193.24 58.244C192.708 57.7307 192.405 57.0773 192.33 56.284H193.506ZM195.48 54.24C196.105 54.24 196.619 54.0487 197.02 53.666C197.421 53.274 197.622 52.7467 197.622 52.084C197.622 51.384 197.426 50.8193 197.034 50.39C196.642 49.9607 196.091 49.746 195.382 49.746C194.729 49.746 194.206 49.9513 193.814 50.362C193.431 50.7727 193.24 51.314 193.24 51.986C193.24 52.6673 193.431 53.2133 193.814 53.624C194.197 54.0347 194.752 54.24 195.48 54.24ZM204.704 51.188C205.283 51.188 205.806 51.314 206.272 51.566C206.739 51.8087 207.103 52.1773 207.364 52.672C207.635 53.1667 207.77 53.7687 207.77 54.478V59H206.51V54.66C206.51 53.8947 206.319 53.3113 205.936 52.91C205.554 52.4993 205.031 52.294 204.368 52.294C203.696 52.294 203.16 52.504 202.758 52.924C202.366 53.344 202.17 53.9553 202.17 54.758V59H200.896V48.64H202.17V52.42C202.422 52.028 202.768 51.7247 203.206 51.51C203.654 51.2953 204.154 51.188 204.704 51.188ZM214.9 57.236L213.332 61.002H212.478L213.5 57.236H214.9ZM215.841 56.746V55.78L220.755 48.976H222.281V55.64H223.681V56.746H222.281V59H221.021V56.746H215.841ZM221.077 50.306L217.311 55.64H221.077V50.306ZM231.408 49.984H226.494V53.176C226.709 52.8773 227.026 52.6347 227.446 52.448C227.866 52.252 228.319 52.154 228.804 52.154C229.579 52.154 230.209 52.3173 230.694 52.644C231.179 52.9613 231.525 53.3767 231.73 53.89C231.945 54.394 232.052 54.9307 232.052 55.5C232.052 56.172 231.926 56.774 231.674 57.306C231.422 57.838 231.035 58.258 230.512 58.566C229.999 58.874 229.359 59.028 228.594 59.028C227.614 59.028 226.821 58.776 226.214 58.272C225.607 57.768 225.239 57.096 225.108 56.256H226.354C226.475 56.788 226.732 57.2033 227.124 57.502C227.516 57.8007 228.011 57.95 228.608 57.95C229.345 57.95 229.901 57.7307 230.274 57.292C230.647 56.844 230.834 56.256 230.834 55.528C230.834 54.8 230.647 54.24 230.274 53.848C229.901 53.4467 229.35 53.246 228.622 53.246C228.127 53.246 227.693 53.3673 227.32 53.61C226.956 53.8433 226.69 54.1653 226.522 54.576H225.318V48.864H231.408V49.984ZM243.181 51.188C243.778 51.188 244.31 51.314 244.777 51.566C245.244 51.8087 245.612 52.1773 245.883 52.672C246.154 53.1667 246.289 53.7687 246.289 54.478V59H245.029V54.66C245.029 53.8947 244.838 53.3113 244.455 52.91C244.082 52.4993 243.573 52.294 242.929 52.294C242.266 52.294 241.739 52.5087 241.347 52.938C240.955 53.358 240.759 53.9693 240.759 54.772V59H239.499V54.66C239.499 53.8947 239.308 53.3113 238.925 52.91C238.552 52.4993 238.043 52.294 237.399 52.294C236.736 52.294 236.209 52.5087 235.817 52.938C235.425 53.358 235.229 53.9693 235.229 54.772V59H233.955V51.328H235.229V52.434C235.481 52.0327 235.817 51.7247 236.237 51.51C236.666 51.2953 237.138 51.188 237.651 51.188C238.295 51.188 238.864 51.3327 239.359 51.622C239.854 51.9113 240.222 52.336 240.465 52.896C240.68 52.3547 241.034 51.9347 241.529 51.636C242.024 51.3373 242.574 51.188 243.181 51.188ZM252.517 59.084C252.275 59.084 252.069 59 251.901 58.832C251.733 58.664 251.649 58.4587 251.649 58.216C251.649 57.9733 251.733 57.768 251.901 57.6C252.069 57.432 252.275 57.348 252.517 57.348C252.751 57.348 252.947 57.432 253.105 57.6C253.273 57.768 253.357 57.9733 253.357 58.216C253.357 58.4587 253.273 58.664 253.105 58.832C252.947 59 252.751 59.084 252.517 59.084ZM252.517 53.092C252.275 53.092 252.069 53.008 251.901 52.84C251.733 52.672 251.649 52.4667 251.649 52.224C251.649 51.9813 251.733 51.776 251.901 51.608C252.069 51.44 252.275 51.356 252.517 51.356C252.751 51.356 252.947 51.44 253.105 51.608C253.273 51.776 253.357 51.9813 253.357 52.224C253.357 52.4667 253.273 52.672 253.105 52.84C252.947 53.008 252.751 53.092 252.517 53.092ZM261.535 62.248L261.129 61.184C261.81 60.96 262.375 60.7033 262.823 60.414C263.28 60.1247 263.639 59.8167 263.901 59.49C264.171 59.1633 264.363 58.832 264.475 58.496C264.587 58.1507 264.643 57.8193 264.643 57.502C264.643 57.0447 264.54 56.5827 264.335 56.116C264.139 55.64 263.919 55.192 263.677 54.772L264.699 54.254C264.876 54.5807 265.03 54.9027 265.161 55.22C265.301 55.5373 265.422 55.836 265.525 56.116C265.637 56.396 265.725 56.6527 265.791 56.886C265.921 57.2873 266.089 57.5627 266.295 57.712C266.509 57.852 266.799 57.922 267.163 57.922C267.359 57.922 267.499 57.978 267.583 58.09C267.676 58.1927 267.723 58.3187 267.723 58.468C267.723 58.6173 267.657 58.7573 267.527 58.888C267.396 59.0093 267.228 59.07 267.023 59.07C266.612 59.07 266.276 59 266.015 58.86C265.763 58.7107 265.571 58.5193 265.441 58.286C265.31 58.0433 265.221 57.7913 265.175 57.53L265.623 57.782C265.623 58.398 265.483 58.958 265.203 59.462C264.932 59.9753 264.582 60.4187 264.153 60.792C263.723 61.1747 263.275 61.4873 262.809 61.73C262.342 61.9727 261.917 62.1453 261.535 62.248ZM267.029 59.07L267.169 57.922C267.403 57.922 267.641 57.922 267.883 57.922C268.135 57.9127 268.383 57.8987 268.625 57.88C268.868 57.8613 269.101 57.838 269.325 57.81C269.549 57.782 269.75 57.74 269.927 57.684C270.254 57.5813 270.553 57.446 270.823 57.278C271.103 57.11 271.327 56.9047 271.495 56.662C271.673 56.4193 271.761 56.1393 271.761 55.822C271.761 55.6073 271.71 55.388 271.607 55.164C271.505 54.9307 271.365 54.7347 271.187 54.576C271.01 54.4173 270.805 54.338 270.571 54.338C270.347 54.338 270.137 54.4127 269.941 54.562C269.755 54.7113 269.601 54.9073 269.479 55.15C269.367 55.3833 269.311 55.626 269.311 55.878C269.311 56.1767 269.386 56.4473 269.535 56.69C269.694 56.9233 269.885 57.124 270.109 57.292C270.333 57.46 270.557 57.5953 270.781 57.698L269.451 58.09C269.302 57.978 269.125 57.824 268.919 57.628C268.723 57.4227 268.546 57.1707 268.387 56.872C268.238 56.5733 268.163 56.2327 268.163 55.85C268.163 55.4767 268.229 55.1313 268.359 54.814C268.499 54.4873 268.681 54.2027 268.905 53.96C269.139 53.7173 269.4 53.5307 269.689 53.4C269.988 53.26 270.296 53.19 270.613 53.19C271.071 53.19 271.472 53.316 271.817 53.568C272.163 53.82 272.429 54.142 272.615 54.534C272.811 54.9167 272.909 55.318 272.909 55.738C272.909 56.1393 272.835 56.5033 272.685 56.83C272.536 57.1473 272.331 57.432 272.069 57.684C271.817 57.936 271.519 58.1507 271.173 58.328C270.837 58.5053 270.478 58.65 270.095 58.762C269.881 58.8273 269.647 58.8787 269.395 58.916C269.153 58.9533 268.896 58.9813 268.625 59C268.355 59.028 268.084 59.0467 267.813 59.056C267.543 59.0653 267.281 59.07 267.029 59.07ZM273.959 59.07C273.493 59.07 273.007 59.042 272.503 58.986C272.009 58.9207 271.537 58.8413 271.089 58.748C270.651 58.6453 270.287 58.5333 269.997 58.412L270.963 57.712C271.243 57.7493 271.575 57.7867 271.957 57.824C272.34 57.852 272.723 57.8753 273.105 57.894C273.488 57.9127 273.819 57.922 274.099 57.922C274.295 57.922 274.435 57.978 274.519 58.09C274.613 58.1927 274.659 58.3187 274.659 58.468C274.659 58.6173 274.594 58.7573 274.463 58.888C274.333 59.0093 274.165 59.07 273.959 59.07ZM270.487 51.748C270.291 51.748 270.123 51.6827 269.983 51.552C269.853 51.412 269.787 51.2487 269.787 51.062C269.787 50.8753 269.853 50.712 269.983 50.572C270.123 50.432 270.291 50.362 270.487 50.362C270.674 50.362 270.833 50.432 270.963 50.572C271.103 50.712 271.173 50.8753 271.173 51.062C271.173 51.2487 271.103 51.412 270.963 51.552C270.833 51.6827 270.674 51.748 270.487 51.748ZM273.961 59.07L274.101 57.922C274.4 57.922 274.642 57.9033 274.829 57.866C275.016 57.8193 275.17 57.712 275.291 57.544C275.422 57.3667 275.543 57.0913 275.655 56.718C275.767 56.3447 275.898 55.822 276.047 55.15L277.097 55.444C277.06 55.6027 277.018 55.7847 276.971 55.99C276.924 56.186 276.882 56.3913 276.845 56.606C276.808 56.8113 276.789 57.0027 276.789 57.18C276.789 57.4133 276.878 57.5953 277.055 57.726C277.232 57.8567 277.554 57.922 278.021 57.922C278.301 57.922 278.53 57.8987 278.707 57.852C278.884 57.8053 279.029 57.6933 279.141 57.516C279.262 57.3387 279.37 57.054 279.463 56.662C279.556 56.27 279.654 55.7333 279.757 55.052L280.821 55.248C280.793 55.416 280.76 55.6213 280.723 55.864C280.686 56.1067 280.648 56.3493 280.611 56.592C280.583 56.8253 280.569 57.0213 280.569 57.18C280.569 57.3107 280.597 57.4367 280.653 57.558C280.718 57.67 280.84 57.7587 281.017 57.824C281.204 57.8893 281.479 57.922 281.843 57.922C282.114 57.922 282.347 57.8893 282.543 57.824C282.748 57.7587 282.902 57.6373 283.005 57.46C283.117 57.2827 283.173 57.0353 283.173 56.718C283.173 56.3633 283.089 55.92 282.921 55.388C282.762 54.8467 282.58 54.31 282.375 53.778L283.509 53.358C283.63 53.6567 283.742 53.9973 283.845 54.38C283.957 54.7627 284.05 55.1407 284.125 55.514C284.2 55.8873 284.237 56.214 284.237 56.494C284.237 56.9233 284.181 57.3013 284.069 57.628C283.957 57.9547 283.798 58.2253 283.593 58.44C283.388 58.6453 283.136 58.804 282.837 58.916C282.538 59.0187 282.202 59.07 281.829 59.07C281.39 59.07 281.031 59.0187 280.751 58.916C280.471 58.8133 280.256 58.6593 280.107 58.454C279.958 58.2393 279.86 57.9687 279.813 57.642H280.289C280.112 58.0433 279.925 58.3467 279.729 58.552C279.533 58.7573 279.29 58.8973 279.001 58.972C278.712 59.0373 278.329 59.07 277.853 59.07C277.62 59.07 277.368 59.0327 277.097 58.958C276.836 58.8833 276.607 58.7387 276.411 58.524C276.215 58.3 276.098 57.9687 276.061 57.53L276.481 57.446C276.322 57.922 276.126 58.2767 275.893 58.51C275.669 58.734 275.398 58.8833 275.081 58.958C274.764 59.0327 274.39 59.07 273.961 59.07ZM289.092 59.014C289.092 58.79 289.111 58.552 289.148 58.3C289.195 58.0387 289.26 57.7633 289.344 57.474C289.437 57.1753 289.549 56.8627 289.68 56.536L290.688 56.928C290.595 57.1893 290.511 57.4367 290.436 57.67C290.371 57.9033 290.319 58.1227 290.282 58.328C290.254 58.5333 290.24 58.7293 290.24 58.916C290.24 59.4013 290.366 59.8027 290.618 60.12C290.87 60.4373 291.215 60.6753 291.654 60.834C292.093 60.9927 292.587 61.072 293.138 61.072C293.763 61.072 294.286 60.988 294.706 60.82C295.135 60.652 295.476 60.428 295.728 60.148C295.98 59.8773 296.157 59.574 296.26 59.238C296.372 58.902 296.428 58.5707 296.428 58.244C296.428 57.8893 296.358 57.46 296.218 56.956C296.087 56.452 295.84 55.8267 295.476 55.08L296.526 54.548C296.713 54.9027 296.881 55.276 297.03 55.668C297.189 56.0507 297.315 56.4473 297.408 56.858C297.511 57.2593 297.562 57.67 297.562 58.09C297.562 58.454 297.515 58.8273 297.422 59.21C297.338 59.5927 297.193 59.9613 296.988 60.316C296.783 60.68 296.507 61.002 296.162 61.282C295.826 61.5713 295.406 61.8 294.902 61.968C294.407 62.136 293.815 62.22 293.124 62.22C292.583 62.22 292.065 62.1547 291.57 62.024C291.085 61.9027 290.655 61.7113 290.282 61.45C289.918 61.1887 289.629 60.8573 289.414 60.456C289.199 60.0547 289.092 59.574 289.092 59.014ZM293.32 53.428C293.124 53.428 292.956 53.3627 292.816 53.232C292.685 53.092 292.62 52.9287 292.62 52.742C292.62 52.5553 292.685 52.392 292.816 52.252C292.956 52.112 293.124 52.042 293.32 52.042C293.507 52.042 293.665 52.112 293.796 52.252C293.936 52.392 294.006 52.5553 294.006 52.742C294.006 52.9287 293.936 53.092 293.796 53.232C293.665 53.3627 293.507 53.428 293.32 53.428ZM302.33 59.07C301.583 59.07 301.009 58.986 300.608 58.818C300.216 58.65 299.945 58.3887 299.796 58.034C299.647 57.6793 299.563 57.222 299.544 56.662L299.264 49.004H300.412L300.692 56.214C300.711 56.6713 300.753 57.026 300.818 57.278C300.893 57.5207 301.051 57.6887 301.294 57.782C301.546 57.8753 301.938 57.922 302.47 57.922C302.666 57.922 302.806 57.978 302.89 58.09C302.983 58.1927 303.03 58.3187 303.03 58.468C303.03 58.6173 302.965 58.7573 302.834 58.888C302.703 59.0093 302.535 59.07 302.33 59.07ZM302.33 59.07L302.47 57.922C302.731 57.922 302.951 57.866 303.128 57.754C303.305 57.642 303.478 57.4553 303.646 57.194C303.814 56.9327 303.996 56.5827 304.192 56.144C304.463 55.5467 304.729 55.094 304.99 54.786C305.261 54.478 305.527 54.268 305.788 54.156C306.059 54.044 306.325 53.988 306.586 53.988C306.903 53.988 307.197 54.072 307.468 54.24C307.739 54.3987 307.977 54.6133 308.182 54.884C308.387 55.1547 308.546 55.4533 308.658 55.78C308.779 56.0973 308.84 56.4147 308.84 56.732C308.84 57.292 308.742 57.74 308.546 58.076C308.35 58.4027 308.098 58.6407 307.79 58.79C307.491 58.93 307.179 59 306.852 59C306.563 59 306.189 58.944 305.732 58.832C305.284 58.72 304.715 58.4353 304.024 57.978L304.57 57.096C305.027 57.3853 305.438 57.586 305.802 57.698C306.175 57.8007 306.483 57.852 306.726 57.852C306.997 57.852 307.211 57.8147 307.37 57.74C307.529 57.656 307.645 57.5393 307.72 57.39C307.795 57.2407 307.832 57.0727 307.832 56.886C307.832 56.6153 307.767 56.3447 307.636 56.074C307.505 55.8033 307.337 55.5793 307.132 55.402C306.936 55.2247 306.726 55.136 306.502 55.136C306.334 55.136 306.171 55.1827 306.012 55.276C305.853 55.3693 305.69 55.542 305.522 55.794C305.354 56.046 305.163 56.41 304.948 56.886C304.724 57.39 304.509 57.7913 304.304 58.09C304.108 58.3793 303.907 58.594 303.702 58.734C303.497 58.874 303.282 58.9627 303.058 59C302.843 59.0467 302.601 59.07 302.33 59.07ZM309.181 62.22L308.775 61.156C309.718 60.8573 310.441 60.498 310.945 60.078C311.458 59.6673 311.808 59.238 311.995 58.79C312.191 58.342 312.289 57.9127 312.289 57.502C312.289 57.2407 312.261 56.9887 312.205 56.746C312.149 56.5033 312.051 56.228 311.911 55.92C311.771 55.612 311.575 55.2293 311.323 54.772L312.345 54.254C312.7 54.8607 312.952 55.4347 313.101 55.976C313.26 56.5173 313.339 56.9933 313.339 57.404C313.339 57.992 313.241 58.524 313.045 59C312.858 59.476 312.606 59.896 312.289 60.26C311.981 60.6333 311.64 60.9507 311.267 61.212C310.903 61.4733 310.534 61.688 310.161 61.856C309.797 62.024 309.47 62.1453 309.181 62.22ZM311.603 52.644C311.407 52.644 311.239 52.5787 311.099 52.448C310.968 52.308 310.903 52.1447 310.903 51.958C310.903 51.7713 310.968 51.608 311.099 51.468C311.239 51.328 311.407 51.258 311.603 51.258C311.79 51.258 311.948 51.328 312.079 51.468C312.219 51.608 312.289 51.7713 312.289 51.958C312.289 52.1447 312.219 52.308 312.079 52.448C311.948 52.5787 311.79 52.644 311.603 52.644ZM323.458 59.294L323.822 58.146C324.914 58.146 325.852 58.118 326.636 58.062C327.429 58.006 328.078 57.9173 328.582 57.796C329.095 57.6653 329.473 57.4927 329.716 57.278C329.968 57.054 330.094 56.7833 330.094 56.466C330.094 56.1113 330.029 55.7007 329.898 55.234C329.767 54.7673 329.599 54.268 329.394 53.736L330.472 53.358C330.593 53.6567 330.705 53.9787 330.808 54.324C330.92 54.66 331.013 54.996 331.088 55.332C331.163 55.6587 331.2 55.962 331.2 56.242C331.2 56.7927 331.074 57.264 330.822 57.656C330.57 58.0387 330.15 58.3513 329.562 58.594C328.974 58.8367 328.181 59.014 327.182 59.126C326.193 59.238 324.951 59.294 323.458 59.294ZM323.458 59.294C322.627 59.294 321.895 59.238 321.26 59.126C320.635 59.0233 320.112 58.86 319.692 58.636C319.272 58.412 318.955 58.1227 318.74 57.768C318.525 57.404 318.418 56.9653 318.418 56.452C318.418 56.2187 318.437 55.9807 318.474 55.738C318.511 55.486 318.558 55.234 318.614 54.982C318.679 54.73 318.745 54.4873 318.81 54.254L319.86 54.52C319.823 54.66 319.781 54.828 319.734 55.024C319.687 55.2107 319.645 55.402 319.608 55.598C319.58 55.794 319.566 55.9713 319.566 56.13C319.566 56.6153 319.687 57.0073 319.93 57.306C320.182 57.5953 320.616 57.81 321.232 57.95C321.848 58.0807 322.711 58.146 323.822 58.146L324.102 58.846L323.458 59.294ZM325.796 53.386C325.6 53.386 325.432 53.3207 325.292 53.19C325.161 53.05 325.096 52.8867 325.096 52.7C325.096 52.5133 325.161 52.35 325.292 52.21C325.432 52.07 325.6 52 325.796 52C325.983 52 326.141 52.07 326.272 52.21C326.412 52.35 326.482 52.5133 326.482 52.7C326.482 52.8867 326.412 53.05 326.272 53.19C326.141 53.3207 325.983 53.386 325.796 53.386ZM323.878 53.386C323.682 53.386 323.514 53.3207 323.374 53.19C323.243 53.05 323.178 52.8867 323.178 52.7C323.178 52.5133 323.243 52.35 323.374 52.21C323.514 52.07 323.682 52 323.878 52C324.065 52 324.223 52.07 324.354 52.21C324.494 52.35 324.564 52.5133 324.564 52.7C324.564 52.8867 324.494 53.05 324.354 53.19C324.223 53.3207 324.065 53.386 323.878 53.386ZM334.912 57.922C335.379 57.922 335.748 57.8753 336.018 57.782C336.298 57.6887 336.499 57.5533 336.62 57.376C336.751 57.1893 336.816 56.9747 336.816 56.732C336.816 56.5453 336.765 56.3213 336.662 56.06C336.569 55.7987 336.438 55.5093 336.27 55.192C336.102 54.8653 335.906 54.5247 335.682 54.17C335.468 53.806 335.234 53.4373 334.982 53.064L335.948 52.434C336.312 52.9847 336.63 53.5073 336.9 54.002C337.171 54.4873 337.4 54.9447 337.586 55.374C337.773 55.794 337.922 56.1907 338.034 56.564C338.165 56.9747 338.31 57.278 338.468 57.474C338.636 57.67 338.809 57.796 338.986 57.852C339.164 57.8987 339.327 57.922 339.476 57.922C339.672 57.922 339.817 57.978 339.91 58.09C340.004 58.1927 340.05 58.3187 340.05 58.468C340.05 58.6173 339.985 58.7573 339.854 58.888C339.724 59.0093 339.556 59.07 339.35 59.07C339.042 59.07 338.739 59.014 338.44 58.902C338.151 58.7807 337.899 58.5893 337.684 58.328C337.47 58.0573 337.32 57.698 337.236 57.25L337.796 56.802C337.796 57.1753 337.717 57.5393 337.558 57.894C337.4 58.2393 337.11 58.524 336.69 58.748C336.28 58.972 335.687 59.084 334.912 59.084C334.576 59.084 334.25 59.056 333.932 59C333.624 58.944 333.34 58.8647 333.078 58.762C332.817 58.65 332.588 58.5193 332.392 58.37L332.952 57.404C333.139 57.5253 333.4 57.642 333.736 57.754C334.072 57.866 334.464 57.922 334.912 57.922ZM339.354 59.07L339.494 57.922C339.755 57.922 339.974 57.866 340.152 57.754C340.329 57.642 340.502 57.4553 340.67 57.194C340.838 56.9327 341.02 56.5827 341.216 56.144C341.486 55.5467 341.752 55.094 342.014 54.786C342.284 54.478 342.55 54.268 342.812 54.156C343.082 54.044 343.348 53.988 343.61 53.988C343.927 53.988 344.221 54.072 344.492 54.24C344.762 54.3987 345 54.6133 345.206 54.884C345.411 55.1547 345.57 55.4533 345.682 55.78C345.803 56.0973 345.864 56.4147 345.864 56.732C345.864 57.292 345.766 57.74 345.57 58.076C345.374 58.4027 345.122 58.6407 344.814 58.79C344.515 58.93 344.202 59 343.876 59C343.586 59 343.213 58.944 342.756 58.832C342.308 58.72 341.738 58.4353 341.048 57.978L341.594 57.096C342.051 57.3853 342.462 57.586 342.826 57.698C343.199 57.8007 343.507 57.852 343.75 57.852C344.02 57.852 344.235 57.8147 344.394 57.74C344.552 57.656 344.669 57.5393 344.744 57.39C344.818 57.2407 344.856 57.0727 344.856 56.886C344.856 56.6153 344.79 56.3447 344.66 56.074C344.529 55.8033 344.361 55.5793 344.156 55.402C343.96 55.2247 343.75 55.136 343.526 55.136C343.358 55.136 343.194 55.1827 343.036 55.276C342.877 55.3693 342.714 55.542 342.546 55.794C342.378 56.046 342.186 56.41 341.972 56.886C341.748 57.39 341.533 57.7913 341.328 58.09C341.132 58.3793 340.931 58.594 340.726 58.734C340.52 58.874 340.306 58.9627 340.082 59C339.867 59.0467 339.624 59.07 339.354 59.07Z" fill="black"/>
</g>
<defs>
<filter id="filter0_d_783_3300" x="0" y="0" width="355" height="226" filterUnits="userSpaceOnUse" color-interpolation-filters="sRGB">
<feFlood flood-opacity="0" result="BackgroundImageFix"/>
<feColorMatrix in="SourceAlpha" type="matrix" values="0 0 0 0 0 0 0 0 0 0 0 0 0 0 0 0 0 0 127 0" result="hardAlpha"/>
<feOffset dy="4"/>
<feGaussianBlur stdDeviation="2"/>
<feComposite in2="hardAlpha" operator="out"/>
<feColorMatrix type="matrix" values="0 0 0 0 0 0 0 0 0 0 0 0 0 0 0 0 0 0 0.25 0"/>
<feBlend mode="normal" in2="BackgroundImageFix" result="effect1_dropShadow_783_3300"/>
<feBlend mode="normal" in="SourceGraphic" in2="effect1_dropShadow_783_3300" result="shape"/>
</filter>
</defs>
</svg>
