<svg width="196" height="26" viewBox="0 0 196 26" fill="none" xmlns="http://www.w3.org/2000/svg">
<path d="M80.4586 6V6C68.4288 6 56.6044 9.1174 46.1382 15.0482L35.6388 20.9979C31.0095 23.6211 25.7795 25 20.4586 25V25H-74.3334" stroke="#565656" stroke-dasharray="2 2"/>
<path d="M110.459 6V6C122.489 6 134.313 9.1174 144.779 15.0482L155.279 20.9979C159.908 23.6211 165.138 25 170.459 25V25H268.09" stroke="#565656" stroke-dasharray="2 2"/>
<path fill-rule="evenodd" clip-rule="evenodd" d="M87.3911 1.5C87.5091 1.5 87.6254 1.52783 87.7306 1.58121L98.8617 7.23062C98.8617 7.23063 98.8616 7.23062 98.8617 7.23062C99.3892 7.49838 100.001 7.54758 100.564 7.3676M100.564 7.3676L102.204 6.84407C102.204 6.84406 102.204 6.84407 102.204 6.84407C102.366 6.79224 102.541 6.79722 102.7 6.85818L103.302 7.08884L101.019 9.03506C100.79 9.23032 100.466 9.2697 100.197 9.13509L96.0854 7.07918C95.7149 6.89394 95.2644 7.04411 95.0792 7.41459C94.8939 7.78508 95.0441 8.23558 95.4146 8.42082L99.5264 10.4767C99.5264 10.4767 99.5264 10.4767 99.5264 10.4767C100.334 10.8806 101.305 10.7624 101.992 10.1766L105.237 7.41118C105.438 7.2395 105.534 6.97437 105.489 6.71354C105.444 6.4527 105.265 6.23476 105.018 6.14006L103.237 5.45752C102.76 5.27459 102.235 5.25967 101.748 5.41513L100.108 5.9387C99.9203 5.9987 99.7164 5.9823 99.5406 5.89308L88.4094 0.243607C88.0939 0.0834854 87.745 0 87.3911 0L84.75 0C84.4901 0 84.2487 0.134589 84.112 0.355702C83.9753 0.576814 83.9629 0.852919 84.0792 1.08541L84.8556 2.63821C85.0733 3.07366 85.4263 3.4267 85.8618 3.64442L90.4146 5.92082C90.7851 6.10606 91.2356 5.95589 91.4208 5.58541C91.606 5.21493 91.4559 4.76442 91.0854 4.57918L86.5326 2.30278C86.3874 2.2302 86.2698 2.11254 86.1972 1.96739L85.9635 1.5L87.3911 1.5" fill="#EDD500"/>
<path fill-rule="evenodd" clip-rule="evenodd" d="M90.3991 4.58719C90.033 4.78099 89.8934 5.23487 90.0872 5.60094L94.5872 14.1009C94.7186 14.3492 94.9778 14.5032 95.2587 14.5C95.5396 14.4967 95.7952 14.3367 95.9208 14.0854L98.4208 9.08544C98.5098 8.90752 98.5244 8.70155 98.4615 8.51284C98.3986 8.32413 98.2633 8.16815 98.0854 8.07919L96.0854 7.07918C95.7149 6.89394 95.2644 7.04411 95.0792 7.41459C94.8939 7.78508 95.0441 8.23558 95.4146 8.42082L96.7438 9.08547L95.2309 12.1111L91.4128 4.89911C91.219 4.53304 90.7652 4.39338 90.3991 4.58719Z" fill="#EDD500"/>
<path fill-rule="evenodd" clip-rule="evenodd" d="M101.345 0.793497C101.163 0.55641 100.858 0.449895 100.568 0.522365L92.5681 2.52237C92.1662 2.62283 91.9219 3.03003 92.0224 3.43187C92.1229 3.83372 92.5301 4.07804 92.9319 3.97758L99.2549 2.39683L97.5944 5.38574C97.3932 5.74783 97.5237 6.20443 97.8858 6.40559C98.2479 6.60675 98.7045 6.47629 98.9056 6.1142L101.406 1.6142C101.551 1.353 101.527 1.03058 101.345 0.793497Z" fill="#EDD500"/>
<path d="M52.3489 10.2023L54.532 10.7309L54.0033 12.914" stroke="#565656"/>
<path d="M141.814 11.8104L142.612 13.9098L140.513 14.7085" stroke="#565656"/>
</svg>
