<svg width="17" height="17" viewBox="0 0 17 17" fill="none" xmlns="http://www.w3.org/2000/svg">
<path d="M8.45825 0.458374C10.6319 0.458374 10.9031 0.466374 11.7559 0.506374C12.6079 0.546374 13.1879 0.679974 13.6983 0.878374C14.2263 1.08157 14.6711 1.35677 15.1159 1.80077C15.5226 2.20069 15.8374 2.68445 16.0383 3.21837C16.2359 3.72797 16.3703 4.30877 16.4103 5.16077C16.4479 6.01357 16.4583 6.28477 16.4583 8.45837C16.4583 10.632 16.4503 10.9032 16.4103 11.756C16.3703 12.608 16.2359 13.188 16.0383 13.6984C15.838 14.2326 15.5231 14.7165 15.1159 15.116C14.7158 15.5226 14.2321 15.8374 13.6983 16.0384C13.1887 16.236 12.6079 16.3704 11.7559 16.4104C10.9031 16.448 10.6319 16.4584 8.45825 16.4584C6.28465 16.4584 6.01345 16.4504 5.16065 16.4104C4.30865 16.3704 3.72865 16.236 3.21825 16.0384C2.68411 15.838 2.20027 15.5231 1.80065 15.116C1.39378 14.7161 1.079 14.2323 0.878252 13.6984C0.679852 13.1888 0.546252 12.608 0.506252 11.756C0.468652 10.9032 0.458252 10.632 0.458252 8.45837C0.458252 6.28477 0.466252 6.01357 0.506252 5.16077C0.546252 4.30797 0.679852 3.72877 0.878252 3.21837C1.07844 2.68412 1.39329 2.20023 1.80065 1.80077C2.20039 1.39376 2.68419 1.07896 3.21825 0.878374C3.72865 0.679974 4.30785 0.546374 5.16065 0.506374C6.01345 0.468774 6.28465 0.458374 8.45825 0.458374ZM8.45825 4.45837C7.39739 4.45837 6.37997 4.8798 5.62982 5.62995C4.87968 6.38009 4.45825 7.39751 4.45825 8.45837C4.45825 9.51924 4.87968 10.5367 5.62982 11.2868C6.37997 12.0369 7.39739 12.4584 8.45825 12.4584C9.51912 12.4584 10.5365 12.0369 11.2867 11.2868C12.0368 10.5367 12.4583 9.51924 12.4583 8.45837C12.4583 7.39751 12.0368 6.38009 11.2867 5.62995C10.5365 4.8798 9.51912 4.45837 8.45825 4.45837V4.45837ZM13.6583 4.25837C13.6583 3.99316 13.5529 3.7388 13.3654 3.55127C13.1778 3.36373 12.9235 3.25837 12.6583 3.25837C12.393 3.25837 12.1387 3.36373 11.9511 3.55127C11.7636 3.7388 11.6583 3.99316 11.6583 4.25837C11.6583 4.52359 11.7636 4.77794 11.9511 4.96548C12.1387 5.15302 12.393 5.25837 12.6583 5.25837C12.9235 5.25837 13.1778 5.15302 13.3654 4.96548C13.5529 4.77794 13.6583 4.52359 13.6583 4.25837ZM8.45825 6.05837C9.09477 6.05837 9.70522 6.31123 10.1553 6.76132C10.6054 7.2114 10.8583 7.82185 10.8583 8.45837C10.8583 9.09489 10.6054 9.70534 10.1553 10.1554C9.70522 10.6055 9.09477 10.8584 8.45825 10.8584C7.82173 10.8584 7.21128 10.6055 6.7612 10.1554C6.31111 9.70534 6.05825 9.09489 6.05825 8.45837C6.05825 7.82185 6.31111 7.2114 6.7612 6.76132C7.21128 6.31123 7.82173 6.05837 8.45825 6.05837V6.05837Z" fill="#868383"/>
</svg>
