<svg width="91" height="582" viewBox="0 0 91 582" fill="none" xmlns="http://www.w3.org/2000/svg">
<path d="M29.9819 660.054L30.0028 660.092L30.022 660.131C70.681 742.412 134.119 790.483 204.927 808.374C275.775 826.274 354.163 813.997 424.697 775.255C565.561 697.882 617.03 520.965 539.657 380.101C520.733 345.649 502.178 301.813 482.951 256.39C482.329 254.919 481.706 253.447 481.082 251.974C461.164 204.93 440.48 156.428 417.816 114.801C395.128 73.1297 370.592 38.6158 343.087 19.3338C329.369 9.71696 314.965 3.9269 299.71 2.88155C284.544 1.84241 268.382 5.48109 251.042 14.9481C147.088 128.72 72.4563 254.843 33.5139 370.149C-5.48605 485.626 -8.57148 589.864 29.9819 660.054Z" stroke="url(#paint0_linear_210_3452)" stroke-width="4"/>
<defs>
<linearGradient id="paint0_linear_210_3452" x1="232.854" y1="333.557" x2="288.928" y2="852.111" gradientUnits="userSpaceOnUse">
<stop offset="0.0001" stop-color="#FACD49"/>
<stop offset="0.136" stop-color="#FACD49"/>
<stop offset="1" stop-color="white"/>
</linearGradient>
</defs>
</svg>
