<svg width="35" height="35" viewBox="0 0 35 35" fill="none" xmlns="http://www.w3.org/2000/svg">
<g clip-path="url(#clip0_598_3283)">
<path fill-rule="evenodd" clip-rule="evenodd" d="M6.78125 24.5C6.88313 24.3642 7.01524 24.2539 7.16711 24.178C7.31898 24.102 7.48645 24.0625 7.65625 24.0625H13.125C13.4151 24.0625 13.6933 24.1777 13.8984 24.3829C14.1035 24.588 14.2188 24.8662 14.2188 25.1562C14.2188 25.4463 14.1035 25.7245 13.8984 25.9296C13.6933 26.1348 13.4151 26.25 13.125 26.25H8.20313L3.28125 32.8125H31.7188L26.7969 26.25H21.875C21.5849 26.25 21.3067 26.1348 21.1016 25.9296C20.8965 25.7245 20.7812 25.4463 20.7812 25.1562C20.7812 24.8662 20.8965 24.588 21.1016 24.3829C21.3067 24.1777 21.5849 24.0625 21.875 24.0625H27.3438C27.5135 24.0625 27.681 24.102 27.8329 24.178C27.9848 24.2539 28.1169 24.3642 28.2188 24.5L34.7812 33.25C34.9031 33.4125 34.9773 33.6057 34.9956 33.808C35.0138 34.0103 34.9754 34.2137 34.8845 34.3954C34.7937 34.5771 34.6541 34.7299 34.4813 34.8366C34.3085 34.9434 34.1094 35 33.9062 35H1.09375C0.890628 35 0.691518 34.9434 0.518732 34.8366C0.345946 34.7299 0.20631 34.5771 0.115471 34.3954C0.0246317 34.2137 -0.0138215 34.0103 0.00442002 33.808C0.0226615 33.6057 0.0968771 33.4125 0.218751 33.25L6.78125 24.5Z" fill="#F1C107"/>
<path fill-rule="evenodd" clip-rule="evenodd" d="M17.5 2.18742C16.6382 2.18742 15.7848 2.35717 14.9886 2.68696C14.1924 3.01676 13.469 3.50015 12.8596 4.10953C12.2502 4.71892 11.7668 5.44236 11.437 6.23856C11.1072 7.03476 10.9375 7.88812 10.9375 8.74992C10.9375 9.61172 11.1072 10.4651 11.437 11.2613C11.7668 12.0575 12.2502 12.7809 12.8596 13.3903C13.469 13.9997 14.1924 14.4831 14.9886 14.8129C15.7848 15.1427 16.6382 15.3124 17.5 15.3124C19.2405 15.3124 20.9097 14.621 22.1404 13.3903C23.3711 12.1596 24.0625 10.4904 24.0625 8.74992C24.0625 7.00944 23.3711 5.34024 22.1404 4.10953C20.9097 2.87883 19.2405 2.18742 17.5 2.18742ZM8.75 8.74992C8.75016 7.06604 9.23619 5.41797 10.1498 4.00347C11.0634 2.58896 12.3657 1.46811 13.9005 0.775405C15.4353 0.0826999 17.1374 -0.152433 18.8025 0.0982206C20.4676 0.348874 22.025 1.07467 23.2879 2.18851C24.5507 3.30235 25.4654 4.75692 25.9221 6.3777C26.3787 7.99847 26.3581 9.71659 25.8625 11.3259C25.3669 12.9352 24.4175 14.3673 23.1282 15.4504C21.8389 16.5335 20.2644 17.2216 18.5938 17.4321V29.5312C18.5938 29.8213 18.4785 30.0995 18.2734 30.3046C18.0683 30.5097 17.7901 30.6249 17.5 30.6249C17.2099 30.6249 16.9317 30.5097 16.7266 30.3046C16.5215 30.0995 16.4063 29.8213 16.4063 29.5312V17.4343C14.2909 17.1678 12.3456 16.1381 10.9358 14.5386C9.526 12.9391 8.74874 10.882 8.75 8.74992Z" fill="#F1C107"/>
</g>
<defs>
<clipPath id="clip0_598_3283">
<rect width="35" height="35" fill="white"/>
</clipPath>
</defs>
</svg>
