<svg width="29" height="20" viewBox="0 0 29 20" fill="none" xmlns="http://www.w3.org/2000/svg">
<path d="M5.04704 2.64222L13.4538 7.87308C13.8513 8.12041 14.3248 8.25307 14.81 8.25307C15.2952 8.25307 15.7687 8.12041 16.1662 7.87308L24.573 2.64222H5.04704ZM26.635 3.92531L17.5224 9.59532C16.7274 10.09 15.7804 10.3553 14.81 10.3553C13.8396 10.3553 12.8926 10.09 12.0976 9.59532L2.985 3.92531V16.3067C2.985 16.8872 3.5144 17.3578 4.1675 17.3578H25.4525C26.1056 17.3578 26.635 16.8872 26.635 16.3067V3.92531ZM4.1675 0.540001H25.4525C27.4118 0.540001 29 1.95175 29 3.69333V16.3067C29 18.0483 27.4118 19.46 25.4525 19.46H4.1675C2.20821 19.46 0.619995 18.0483 0.619995 16.3067V3.69333C0.619995 1.95175 2.20821 0.540001 4.1675 0.540001Z" fill="white"/>
</svg>
