<svg width="23" height="24" viewBox="0 0 23 24" fill="none" xmlns="http://www.w3.org/2000/svg">
<path d="M17.5627 14.8583C15.9794 14.7144 15.1158 16.8734 13.9643 17.4491C12.0932 18.4567 8.63875 14.8583 8.63875 14.8583C8.63875 14.8583 5.04038 11.4039 5.90399 9.53272C6.62366 8.38124 8.78269 7.51763 8.63875 5.93435C8.49481 4.495 5.32825 -0.686656 3.74496 0.752693C0.290524 3.91926 0.00265449 5.21468 0.00265449 7.8055C-0.14128 12.2675 5.61612 17.8809 5.61612 17.8809C6.19186 18.4567 11.2296 23.6383 15.6916 23.4944C18.2824 23.4944 19.5778 23.2065 22.7444 19.7521C24.1837 18.1688 19.146 15.0023 17.5627 14.8583Z" fill="white"/>
</svg>
