<svg width="173" height="819" viewBox="0 0 173 819" fill="none" xmlns="http://www.w3.org/2000/svg">
<path d="M-375.018 660.054L-374.997 660.092L-374.978 660.131C-334.319 742.412 -270.881 790.483 -200.073 808.374C-129.225 826.274 -50.837 813.997 19.697 775.255C160.561 697.882 212.03 520.965 134.657 380.101C115.733 345.649 97.1782 301.813 77.9512 256.39C77.3288 254.919 76.7056 253.447 76.0818 251.974C56.1642 204.93 35.4801 156.428 12.8161 114.801C-9.87217 73.1297 -34.4076 38.6158 -61.9126 19.3338C-75.6306 9.71696 -90.0346 3.9269 -105.29 2.88155C-120.456 1.84241 -136.618 5.48109 -153.958 14.9481C-257.912 128.72 -332.544 254.843 -371.486 370.149C-410.486 485.626 -413.571 589.864 -375.018 660.054Z" stroke="url(#paint0_linear_210_3453)" stroke-width="4"/>
<defs>
<linearGradient id="paint0_linear_210_3453" x1="-172.146" y1="333.557" x2="-116.072" y2="852.111" gradientUnits="userSpaceOnUse">
<stop offset="0.0001" stop-color="#FACD49"/>
<stop offset="0.136" stop-color="#FACD49"/>
<stop offset="1" stop-color="white"/>
</linearGradient>
</defs>
</svg>
