<svg width="224" height="32" viewBox="0 0 224 32" fill="none" xmlns="http://www.w3.org/2000/svg">
<path d="M23.5475 18.7303L23.5475 18.7303L28.5342 14.0103L28.5357 14.0088C28.8041 13.7571 28.9027 13.3751 28.7907 13.0265C28.6656 12.6718 28.3533 12.4151 27.9805 12.3618L27.9794 12.3617L21.3527 11.4003L21.3488 11.3997L21.3488 11.3997C20.7099 11.3018 20.1555 10.8981 19.8695 10.3147C19.8692 10.3142 19.869 10.3137 19.8687 10.3132L16.9131 4.35943C16.7633 4.07086 16.4811 3.87466 16.1574 3.8335H15.7234L15.5882 3.88917L15.5792 3.89287L15.5701 3.89622L15.474 3.93149C15.4492 3.94883 15.4277 3.96785 15.4088 3.98877L15.3794 4.02127L15.3448 4.04817L15.2482 4.1233C15.1904 4.18235 15.1394 4.25286 15.0975 4.33238L12.1806 10.3127L12.1784 10.3171L12.1784 10.3171C11.8771 10.9197 11.2901 11.3288 10.6202 11.4017L4.00624 12.3612C3.64107 12.4197 3.3384 12.6756 3.21947 13.0271L3.21814 13.031C3.09822 13.3759 3.18902 13.7587 3.45251 14.0144L23.5475 18.7303ZM23.5475 18.7303L23.5432 18.7344C23.0796 19.1838 22.8672 19.8327 22.9726 20.4686L22.9725 20.4686L22.9738 20.4757L24.1591 27.0353L23.5475 18.7303ZM8.26718 18.6811L3.45268 14.0146L24.1592 27.0357C24.2242 27.3981 24.0714 27.7653 23.7671 27.9754L23.767 27.9752L23.7561 27.9832C23.4566 28.2021 23.0567 28.2293 22.7275 28.0528L22.7275 28.0528L22.7224 28.0501L16.8209 24.9721C16.8202 24.9718 16.8195 24.9714 16.8188 24.9711C16.5437 24.825 16.2405 24.7478 15.9335 24.739L15.9263 24.7388H15.9192H15.5579H15.5208L15.4842 24.7443C15.3051 24.7709 15.1272 24.8282 14.9622 24.9178L9.0633 28.0084C8.86733 28.1059 8.64676 28.1408 8.43064 28.1075C7.91302 28.0059 7.56768 27.5119 7.65072 26.9898L8.83653 20.4345L8.8366 20.4345L8.8379 20.4266C8.9429 19.7877 8.73113 19.1379 8.26998 18.6838L8.26718 18.6811Z" fill="white" stroke="black"/>
<path d="M71.5475 18.7303L71.5475 18.7303L76.5342 14.0103L76.5357 14.0088C76.8041 13.7571 76.9027 13.3751 76.7907 13.0265C76.6656 12.6718 76.3533 12.4151 75.9805 12.3618L75.9794 12.3617L69.3527 11.4003L69.3488 11.3997L69.3488 11.3997C68.7099 11.3018 68.1555 10.8981 67.8695 10.3147C67.8692 10.3142 67.869 10.3137 67.8687 10.3132L64.9131 4.35943C64.7633 4.07086 64.4811 3.87466 64.1574 3.8335H63.7234L63.5882 3.88917L63.5792 3.89287L63.5701 3.89622L63.474 3.93149C63.4492 3.94883 63.4277 3.96785 63.4088 3.98877L63.3794 4.02127L63.3448 4.04817L63.2482 4.1233C63.1904 4.18235 63.1394 4.25286 63.0975 4.33238L60.1806 10.3127L60.1784 10.3171L60.1784 10.3171C59.8771 10.9197 59.2901 11.3288 58.6202 11.4017L52.0062 12.3612C51.6411 12.4197 51.3384 12.6756 51.2195 13.0271L51.2181 13.031C51.0982 13.3759 51.189 13.7587 51.4525 14.0144L71.5475 18.7303ZM71.5475 18.7303L71.5432 18.7344C71.0796 19.1838 70.8672 19.8327 70.9726 20.4686L70.9725 20.4686L70.9738 20.4757L72.1591 27.0353L71.5475 18.7303ZM56.2672 18.6811L51.4527 14.0146L72.1592 27.0357C72.2242 27.3981 72.0714 27.7653 71.7671 27.9754L71.767 27.9752L71.7561 27.9832C71.4566 28.2021 71.0567 28.2293 70.7275 28.0528L70.7275 28.0528L70.7224 28.0501L64.8209 24.9721C64.8202 24.9718 64.8195 24.9714 64.8188 24.9711C64.5437 24.825 64.2405 24.7478 63.9335 24.739L63.9263 24.7388H63.9192H63.5579H63.5208L63.4842 24.7443C63.3051 24.7709 63.1272 24.8282 62.9622 24.9178L57.0633 28.0084C56.8673 28.1059 56.6468 28.1408 56.4306 28.1075C55.913 28.0059 55.5677 27.5119 55.6507 26.9898L56.8365 20.4345L56.8366 20.4345L56.8379 20.4266C56.9429 19.7877 56.7311 19.1379 56.27 18.6838L56.2672 18.6811Z" fill="#F1C107" stroke="black"/>
<path d="M119.547 18.7303L119.547 18.7303L124.534 14.0103L124.536 14.0088C124.804 13.7571 124.903 13.3751 124.791 13.0265C124.666 12.6718 124.353 12.4151 123.98 12.3618L123.979 12.3617L117.353 11.4003L117.349 11.3997L117.349 11.3997C116.71 11.3018 116.156 10.8981 115.869 10.3147C115.869 10.3142 115.869 10.3137 115.869 10.3132L112.913 4.35943C112.763 4.07086 112.481 3.87466 112.157 3.8335H111.723L111.588 3.88917L111.579 3.89287L111.57 3.89622L111.474 3.93149C111.449 3.94883 111.428 3.96785 111.409 3.98877L111.379 4.02127L111.345 4.04817L111.248 4.1233C111.19 4.18235 111.139 4.25286 111.097 4.33238L108.181 10.3127L108.178 10.3171L108.178 10.3171C107.877 10.9197 107.29 11.3288 106.62 11.4017L100.006 12.3612C99.6411 12.4197 99.3384 12.6756 99.2195 13.0271L99.2181 13.031C99.0982 13.3759 99.189 13.7587 99.4525 14.0144L119.547 18.7303ZM119.547 18.7303L119.543 18.7344C119.08 19.1838 118.867 19.8327 118.973 20.4686L118.973 20.4686L118.974 20.4757L120.159 27.0353L119.547 18.7303ZM104.267 18.6811L99.4527 14.0146L120.159 27.0357C120.224 27.3981 120.071 27.7653 119.767 27.9754L119.767 27.9752L119.756 27.9832C119.457 28.2021 119.057 28.2293 118.727 28.0528L118.727 28.0528L118.722 28.0501L112.821 24.9721C112.82 24.9718 112.82 24.9714 112.819 24.9711C112.544 24.825 112.241 24.7478 111.933 24.739L111.926 24.7388H111.919H111.558H111.521L111.484 24.7443C111.305 24.7709 111.127 24.8282 110.962 24.9178L105.063 28.0084C104.867 28.1059 104.647 28.1408 104.431 28.1075C103.913 28.0059 103.568 27.5119 103.651 26.9898L104.837 20.4345L104.837 20.4345L104.838 20.4266C104.943 19.7877 104.731 19.1379 104.27 18.6838L104.267 18.6811Z" fill="#F1C107" stroke="black"/>
<path d="M167.547 18.7303L167.547 18.7303L172.534 14.0103L172.536 14.0088C172.804 13.7571 172.903 13.3751 172.791 13.0265C172.666 12.6718 172.353 12.4151 171.98 12.3618L171.979 12.3617L165.353 11.4003L165.349 11.3997L165.349 11.3997C164.71 11.3018 164.156 10.8981 163.869 10.3147C163.869 10.3142 163.869 10.3137 163.869 10.3132L160.913 4.35943C160.763 4.07086 160.481 3.87466 160.157 3.8335H159.723L159.588 3.88917L159.579 3.89287L159.57 3.89622L159.474 3.93149C159.449 3.94883 159.428 3.96785 159.409 3.98877L159.379 4.02127L159.345 4.04817L159.248 4.1233C159.19 4.18235 159.139 4.25286 159.097 4.33238L156.181 10.3127L156.178 10.3171L156.178 10.3171C155.877 10.9197 155.29 11.3288 154.62 11.4017L148.006 12.3612C147.641 12.4197 147.338 12.6756 147.219 13.0271L147.218 13.031C147.098 13.3759 147.189 13.7587 147.453 14.0144L167.547 18.7303ZM167.547 18.7303L167.543 18.7344C167.08 19.1838 166.867 19.8327 166.973 20.4686L166.973 20.4686L166.974 20.4757L168.159 27.0353L167.547 18.7303ZM152.267 18.6811L147.453 14.0146L168.159 27.0357C168.224 27.3981 168.071 27.7653 167.767 27.9754L167.767 27.9752L167.756 27.9832C167.457 28.2021 167.057 28.2293 166.727 28.0528L166.727 28.0528L166.722 28.0501L160.821 24.9721C160.82 24.9718 160.82 24.9714 160.819 24.9711C160.544 24.825 160.241 24.7478 159.933 24.739L159.926 24.7388H159.919H159.558H159.521L159.484 24.7443C159.305 24.7709 159.127 24.8282 158.962 24.9178L153.063 28.0084C152.867 28.1059 152.647 28.1408 152.431 28.1075C151.913 28.0059 151.568 27.5119 151.651 26.9898L152.837 20.4345L152.837 20.4345L152.838 20.4266C152.943 19.7877 152.731 19.1379 152.27 18.6838L152.267 18.6811Z" fill="#F1C107" stroke="black"/>
<path d="M215.547 18.7303L215.547 18.7303L220.534 14.0103L220.536 14.0088C220.804 13.7571 220.903 13.3751 220.791 13.0265C220.666 12.6718 220.353 12.4151 219.98 12.3618L219.979 12.3617L213.353 11.4003L213.349 11.3997L213.349 11.3997C212.71 11.3018 212.156 10.8981 211.869 10.3147C211.869 10.3142 211.869 10.3137 211.869 10.3132L208.913 4.35943C208.763 4.07086 208.481 3.87466 208.157 3.8335H207.723L207.588 3.88917L207.579 3.89287L207.57 3.89622L207.474 3.93149C207.449 3.94883 207.428 3.96785 207.409 3.98877L207.379 4.02127L207.345 4.04817L207.248 4.1233C207.19 4.18235 207.139 4.25286 207.097 4.33238L204.181 10.3127L204.178 10.3171L204.178 10.3171C203.877 10.9197 203.29 11.3288 202.62 11.4017L196.006 12.3612C195.641 12.4197 195.338 12.6756 195.219 13.0271L195.218 13.031C195.098 13.3759 195.189 13.7587 195.453 14.0144L215.547 18.7303ZM215.547 18.7303L215.543 18.7344C215.08 19.1838 214.867 19.8327 214.973 20.4686L214.973 20.4686L214.974 20.4757L216.159 27.0353L215.547 18.7303ZM200.267 18.6811L195.453 14.0146L216.159 27.0357C216.224 27.3981 216.071 27.7653 215.767 27.9754L215.767 27.9752L215.756 27.9832C215.457 28.2021 215.057 28.2293 214.727 28.0528L214.727 28.0528L214.722 28.0501L208.821 24.9721C208.82 24.9718 208.82 24.9714 208.819 24.9711C208.544 24.825 208.241 24.7478 207.933 24.739L207.926 24.7388H207.919H207.558H207.521L207.484 24.7443C207.305 24.7709 207.127 24.8282 206.962 24.9178L201.063 28.0084C200.867 28.1059 200.647 28.1408 200.431 28.1075C199.913 28.0059 199.568 27.5119 199.651 26.9898L200.837 20.4345L200.837 20.4345L200.838 20.4266C200.943 19.7877 200.731 19.1379 200.27 18.6838L200.267 18.6811Z" fill="#F1C107" stroke="black"/>
</svg>
