<svg width="17" height="16" viewBox="0 0 17 16" fill="none" xmlns="http://www.w3.org/2000/svg">
<path d="M11.779 7.46666C11.6507 7.46666 11.5225 7.41997 11.4212 7.31997C11.2255 7.12663 11.2255 6.80664 11.4212 6.6133L13.5744 4.48663L11.4212 2.35997C11.2255 2.16663 11.2255 1.84663 11.4212 1.6533C11.617 1.45997 11.9409 1.45997 12.1367 1.6533L14.6476 4.13332C14.7421 4.22666 14.796 4.3533 14.796 4.48663C14.796 4.61997 14.7421 4.74665 14.6476 4.83999L12.1367 7.31997C12.0354 7.4133 11.9072 7.46666 11.779 7.46666Z" fill="#202020"/>
<path d="M14.2898 4.98657H2.1405C1.86376 4.98657 1.63428 4.75991 1.63428 4.48657C1.63428 4.21324 1.86376 3.98657 2.1405 3.98657H14.2898C14.5666 3.98657 14.7961 4.21324 14.7961 4.48657C14.7961 4.75991 14.5666 4.98657 14.2898 4.98657Z" fill="#202020"/>
<path d="M4.65134 14.5001C4.5231 14.5001 4.39488 14.4534 4.29363 14.3534L1.78275 11.8734C1.68825 11.7801 1.63428 11.6534 1.63428 11.5201C1.63428 11.3867 1.68825 11.2601 1.78275 11.1667L4.29363 8.68675C4.48937 8.49341 4.81335 8.49341 5.00909 8.68675C5.20483 8.88008 5.20483 9.20008 5.00909 9.39341L2.85596 11.5201L5.00909 13.6467C5.20483 13.84 5.20483 14.1601 5.00909 14.3534C4.9146 14.4534 4.78633 14.5001 4.65134 14.5001Z" fill="#202020"/>
<path d="M14.2898 12.0134H2.1405C1.86376 12.0134 1.63428 11.7868 1.63428 11.5134C1.63428 11.2401 1.86376 11.0134 2.1405 11.0134H14.2898C14.5666 11.0134 14.7961 11.2401 14.7961 11.5134C14.7961 11.7868 14.5666 12.0134 14.2898 12.0134Z" fill="#202020"/>
</svg>
