<svg width="17" height="18" viewBox="0 0 17 18" fill="none" xmlns="http://www.w3.org/2000/svg">
<g clip-path="url(#clip0_595_3464)">
<g clip-path="url(#clip1_595_3464)">
<path d="M16.2783 8.24976C16.2783 10.3715 15.4355 12.4063 13.9352 13.9066C12.4349 15.4069 10.4001 16.2498 8.27832 16.2498C6.15659 16.2498 4.12176 15.4069 2.62147 13.9066C1.12118 12.4063 0.27832 10.3715 0.27832 8.24976C0.27832 6.12802 1.12118 4.09319 2.62147 2.5929C4.12176 1.09261 6.15659 0.249756 8.27832 0.249756C10.4001 0.249756 12.4349 1.09261 13.9352 2.5929C15.4355 4.09319 16.2783 6.12802 16.2783 8.24976ZM8.56532 6.15576C7.78665 6.47976 6.23132 7.14976 3.89932 8.16576C3.52132 8.31576 3.32299 8.46309 3.30432 8.60776C3.27432 8.85076 3.57932 8.94676 3.99432 9.07776L4.16932 9.13276C4.57732 9.26576 5.12732 9.42076 5.41232 9.42676C5.67232 9.43342 5.96165 9.32676 6.28032 9.10676C8.45965 7.63609 9.58432 6.89276 9.65432 6.87676C9.70432 6.86476 9.77432 6.85076 9.82032 6.89276C9.86632 6.93476 9.86232 7.01276 9.85732 7.03376C9.82732 7.16276 8.63032 8.27476 8.01132 8.85076C7.81832 9.03076 7.68132 9.15776 7.65332 9.18676C7.59168 9.24979 7.52901 9.3118 7.46532 9.37276C7.08532 9.73876 6.80132 10.0128 7.48032 10.4608C7.80732 10.6768 8.06932 10.8538 8.33032 11.0318C8.61432 11.2258 8.89832 11.4188 9.26632 11.6608C9.35965 11.7221 9.44965 11.7844 9.53632 11.8478C9.86732 12.0838 10.1663 12.2958 10.5333 12.2618C10.7473 12.2418 10.9683 12.0418 11.0803 11.4418C11.3453 10.0248 11.8663 6.95576 11.9863 5.69076C11.9939 5.5856 11.9895 5.47993 11.9733 5.37576C11.9636 5.29176 11.923 5.2144 11.8593 5.15876C11.7682 5.09619 11.6598 5.06367 11.5493 5.06576C11.2493 5.07076 10.7863 5.23176 8.56532 6.15576Z" fill="#868383"/>
</g>
</g>
<defs>
<clipPath id="clip0_595_3464">
<rect width="16.5278" height="17.5" fill="white"/>
</clipPath>
<clipPath id="clip1_595_3464">
<rect width="16" height="16" fill="white" transform="translate(0.27832 0.249756)"/>
</clipPath>
</defs>
</svg>
