<svg width="14" height="16" viewBox="0 0 14 16" fill="none" xmlns="http://www.w3.org/2000/svg">
<path d="M9.621 0.515049C7.647 0.0200488 6.353 0.0200488 4.38 0.515049C3.456 0.745049 2.398 1.28105 1.6 1.73505C0.566 2.32205 0 3.43205 0 4.58205V13.5C0 14.1631 0.263392 14.799 0.732233 15.2678C1.20107 15.7367 1.83696 16 2.5 16H11.5C12.163 16 12.7989 15.7367 13.2678 15.2678C13.7366 14.799 14 14.1631 14 13.5V4.58305C14 3.43305 13.435 2.32305 12.4 1.73405C11.603 1.28105 10.545 0.747049 9.621 0.515049ZM5.5 2.00005H8.5C8.63261 2.00005 8.75979 2.05273 8.85355 2.1465C8.94732 2.24026 9 2.36744 9 2.50005C9 2.63266 8.94732 2.75983 8.85355 2.8536C8.75979 2.94737 8.63261 3.00005 8.5 3.00005H5.5C5.36739 3.00005 5.24021 2.94737 5.14645 2.8536C5.05268 2.75983 5 2.63266 5 2.50005C5 2.36744 5.05268 2.24026 5.14645 2.1465C5.24021 2.05273 5.36739 2.00005 5.5 2.00005ZM3.5 4.00005H10.5C10.8978 4.00005 11.2794 4.15808 11.5607 4.43939C11.842 4.72069 12 5.10222 12 5.50005V7.50005C12 7.89787 11.842 8.2794 11.5607 8.56071C11.2794 8.84201 10.8978 9.00005 10.5 9.00005H3.5C3.10218 9.00005 2.72064 8.84201 2.43934 8.56071C2.15804 8.2794 2 7.89787 2 7.50005V5.50005C2 5.10222 2.15804 4.72069 2.43934 4.43939C2.72064 4.15808 3.10218 4.00005 3.5 4.00005ZM4 13C4 13.2653 3.89464 13.5196 3.70711 13.7072C3.51957 13.8947 3.26522 14 3 14C2.73478 14 2.48043 13.8947 2.29289 13.7072C2.10536 13.5196 2 13.2653 2 13C2 12.7348 2.10536 12.4805 2.29289 12.2929C2.48043 12.1054 2.73478 12 3 12C3.26522 12 3.51957 12.1054 3.70711 12.2929C3.89464 12.4805 4 12.7348 4 13ZM4 13C4 12.7348 4.10536 12.4805 4.29289 12.2929C4.48043 12.1054 4.73478 12 5 12C5.26522 12 5.51957 12.1054 5.70711 12.2929C5.89464 12.4805 6 12.7348 6 13C6 13.2653 5.89464 13.5196 5.70711 13.7072C5.51957 13.8947 5.26522 14 5 14C4.73478 14 4.48043 13.8947 4.29289 13.7072C4.10536 13.5196 4 13.2653 4 13ZM12 13C12 13.2653 11.8946 13.5196 11.7071 13.7072C11.5196 13.8947 11.2652 14 11 14C10.7348 14 10.4804 13.8947 10.2929 13.7072C10.1054 13.5196 10 13.2653 10 13C10 12.7348 10.1054 12.4805 10.2929 12.2929C10.4804 12.1054 10.7348 12 11 12C11.2652 12 11.5196 12.1054 11.7071 12.2929C11.8946 12.4805 12 12.7348 12 13ZM9 12C9.26522 12 9.51957 12.1054 9.70711 12.2929C9.89464 12.4805 10 12.7348 10 13C10 13.2653 9.89464 13.5196 9.70711 13.7072C9.51957 13.8947 9.26522 14 9 14C8.73478 14 8.48043 13.8947 8.29289 13.7072C8.10536 13.5196 8 13.2653 8 13C8 12.7348 8.10536 12.4805 8.29289 12.2929C8.48043 12.1054 8.73478 12 9 12ZM3 5.50005C3 5.36744 3.05268 5.24026 3.14645 5.1465C3.24021 5.05273 3.36739 5.00005 3.5 5.00005H6.5V8.00005H3.5C3.36739 8.00005 3.24021 7.94737 3.14645 7.8536C3.05268 7.75983 3 7.63266 3 7.50005V5.50005ZM7.5 8.00005V5.00005H10.5C10.6326 5.00005 10.7598 5.05273 10.8536 5.1465C10.9473 5.24026 11 5.36744 11 5.50005V7.50005C11 7.63266 10.9473 7.75983 10.8536 7.8536C10.7598 7.94737 10.6326 8.00005 10.5 8.00005H7.5Z" fill="#3381FF"/>
</svg>
