<svg width="30" height="26" viewBox="0 0 30 26" fill="none" xmlns="http://www.w3.org/2000/svg">
<path d="M29.9412 3.71281C28.8181 4.20731 27.6283 4.53373 26.41 4.68156C27.6926 3.91062 28.653 2.70161 29.1138 1.27781C27.925 1.97156 26.6075 2.47656 25.205 2.75781C24.2797 1.76834 23.0536 1.11208 21.7171 0.890934C20.3805 0.669784 19.0084 0.89612 17.8137 1.5348C16.619 2.17347 15.6686 3.18875 15.1101 4.42296C14.5516 5.65718 14.4162 7.04127 14.725 8.36031C9.6125 8.11906 5.08375 5.66281 2.05 1.95281C1.49849 2.89007 1.21083 3.95909 1.2175 5.04656C1.2175 7.18406 2.305 9.06281 3.9525 10.1666C2.97607 10.1355 2.02121 9.87148 1.1675 9.39656V9.47156C1.16695 10.892 1.65784 12.269 2.55688 13.3688C3.45593 14.4685 4.70777 15.2234 6.1 15.5053C5.19787 15.747 4.25302 15.7833 3.335 15.6116C3.73015 16.8341 4.49708 17.9027 5.52877 18.6684C6.56046 19.4341 7.80544 19.8587 9.09 19.8828C6.91441 21.5902 4.2281 22.5169 1.4625 22.5141C0.975 22.5141 0.48875 22.4853 0 22.4303C2.81964 24.2357 6.09814 25.1941 9.44625 25.1916C20.7625 25.1916 26.9438 15.8216 26.9438 7.71031C26.9438 7.44781 26.9438 7.18531 26.925 6.92281C28.1325 6.05389 29.174 4.97508 30 3.73781L29.9412 3.71281Z" fill="#F4F4F4"/>
</svg>
