<svg width="24" height="22" viewBox="0 0 24 22" fill="none" xmlns="http://www.w3.org/2000/svg">
<path d="M23.8787 5.55624C22.5271 13.0653 15.018 19.523 12.7653 21.0248C10.5126 22.5266 8.4101 20.4241 7.6592 18.9223C6.9083 16.97 4.35523 7.50859 3.60433 6.60751C3.00361 5.8566 0.901082 7.50859 0.901082 7.50859L0 6.15696C0 6.15696 4.05487 1.20101 7.20866 0.600291C10.5126 -0.000430912 10.5126 5.70642 11.2635 8.86021C12.0144 11.8638 12.6152 13.666 13.2159 13.666C13.8166 13.666 15.1682 12.014 16.5198 9.31075C17.8715 6.75769 16.5198 4.3548 13.6664 6.00678C14.8679 -0.450973 25.2303 -2.10296 23.8787 5.55624V5.55624Z" fill="white"/>
</svg>
