<svg width="38" height="38" viewBox="0 0 38 38" fill="none" xmlns="http://www.w3.org/2000/svg">
<circle cx="19" cy="19" r="19" fill="#FFA500"/>
<path d="M22.3599 2.31109C20.0869 1.80448 17.7323 1.78525 15.4512 2.25467C13.1702 2.72408 11.0145 3.67149 9.12623 5.03447C7.23792 6.39745 5.65983 8.14507 4.49594 10.1622C3.33204 12.1793 2.60876 14.4202 2.37373 16.7371C2.1387 19.054 2.39727 21.3945 3.1324 23.6042C3.86752 25.814 5.06252 27.8429 6.63867 29.5573C8.21481 31.2717 10.1363 32.6327 12.2766 33.5506C14.4169 34.4685 16.7274 34.9225 19.0559 34.8827L18.9944 31.2891C17.1736 31.3202 15.3669 30.9652 13.6933 30.2474C12.0196 29.5297 10.5171 28.4654 9.28458 27.1248C8.05208 25.7842 7.11763 24.1976 6.54279 22.4697C5.96795 20.7417 5.76576 18.9116 5.94954 17.0998C6.13332 15.2881 6.69891 13.5358 7.60903 11.9585C8.51916 10.3811 9.75317 9.01457 11.2298 7.94876C12.7064 6.88296 14.392 6.14212 16.1757 5.77505C17.9594 5.40799 19.8006 5.42302 21.5781 5.81917L22.3599 2.31109Z" fill="white"/>
<path d="M17 12L26 19.5L17 27V12Z" fill="white" stroke="#362D2D" stroke-width="2" stroke-linecap="round" stroke-linejoin="round"/>
</svg>
